<?xml version="1.0" encoding="iso-8859-1"?>
<!-- Generator: Adobe Illustrator 19.0.0, SVG Export Plug-In . SVG Version: 6.00 Build 0)  -->
<svg version="1.1" id="Capa_1" xmlns="http://www.w3.org/2000/svg" xmlns:xlink="http://www.w3.org/1999/xlink" x="0px" y="0px"
	 viewBox="0 0 371.442 371.442" style="enable-background:new 0 0 371.442 371.442;" xml:space="preserve">
<path style="fill:#E6E6E6;" d="M367.2,145.521c-6-7.6-17.2-8.8-24.8-2.8l-10.4,8.4c-6.8-32.4-22.8-61.6-45.6-84.4
	c-30.4-30-72.4-48.8-118.4-48.8c-46.4,0-88.4,18.8-118.8,49.2s-49.2,72-49.2,118.4s18.8,88.4,49.2,118.8s72.4,49.2,118.8,49.2
	c10,0,18-8,18-18s-8-18-18-18c-36.4,0-69.6-14.8-93.6-38.8s-38.8-56.8-38.8-93.6c0-36.4,14.8-69.6,38.8-93.6s56.8-38.8,93.6-38.8
	c36.4,0,69.6,14.8,93.6,38.8c14,14,24.8,31.2,31.6,50.4c-7.6-5.6-18.4-4.4-24.4,3.2c-6,7.6-4.8,18.8,2.8,24.8l35.6,28.8l0,0l0,0
	c0,0,0,0,0.4,0c0.8,0.4,1.2,0.8,2,1.6l0.4,0.4h0.4c0.8,0.4,1.6,0.8,2.4,0.8h0.4h0.4c0.8,0,1.6,0.4,2.4,0.4c0.4,0,0.4,0,0.8,0
	s0.4,0,0.8,0s0.8,0,1.2,0c0.4,0,0.8,0,1.2,0c0.4,0,0.4,0,0.8,0s0.4,0,0.8,0c0.8,0,1.6-0.4,2.4-0.4h0.4h0.4c0.8-0.4,1.6-0.4,2.4-0.8
	h0.4l0.4-0.4c0.8-0.4,1.6-0.8,2-1.6c0,0,0,0,0.4,0l0,0l0,0l35.6-28.8C372.4,164.321,373.6,153.521,367.2,145.521z"/>
<path style="fill:#FFCC66;" d="M212.8,197.121v-14.4l0,0c0-4.4,0.8-8,2.8-10.8c2.4-3.2,6-5.2,10.8-5.2c4.4,0,8,1.2,10.4,3.6
	c2.4,2.4,4,5.6,4,10v0.4v16h5.2h0.4l0,0c4,0,7.2,1.2,9.6,3.6s3.6,5.6,3.6,9.2l0,0v0.4l0,0c0,4-0.8,7.6-3.2,10.4
	c-2.4,2.8-5.6,4.4-10,4.4h-6v8.8l0,0c0,4-1.2,7.2-3.6,9.6s-5.6,4-10.4,4l0,0c-4,0-7.6-1.2-10.4-3.6c-2.4-2.4-4-5.6-4-10.4
	c0-1.6,0-4.4,0-7.6v-1.6c-6.8,0-10.8,0-14.8,0c-9.2,0-18.4,0-20,0c-4.8,0-8.4-2-11.2-4.4c-3.2-3.2-4.4-7.6-4.4-11.2
	c0-2.8,0.4-5.2,1.2-7.6l0,0c0.8-2.8,2-5.2,3.6-7.2l0,0c2.8-5.2,9.2-16,16-28.8c6-10.8,12.4-22.8,17.2-32l0,0
	c1.6-2.8,3.6-4.8,5.6-6.4l0,0c2.4-1.6,5.2-2.4,8-2.4c3.6,0,7.6,1.6,10.4,3.6c3.2,2.4,5.6,6,5.6,10c0,1.2,0,2.4-0.4,4
	c-0.4,1.2-0.8,2.4-1.2,3.6l0,0v0.4c-4.4,8.4-8.8,15.6-13.2,22.8c-3.2,5.6-6.4,10.8-9.2,15.6l0,0l-6.8,13.2H212.8z M126.4,155.921
	c-2.4-2-6-3.2-10.4-3.2c-2.4,0-4.4,0.8-6.4,1.6c-2.8,1.2-5.2,3.6-7.2,5.2c-1.6,1.6-3.2,2.8-5.2,4l0,0c-2.4,1.2-4.8,2-7.6,2
	c-4,0-7.2-1.6-10-4.4c-2.4-2.4-4-6-4-10c0-3.2,1.2-6.4,3.2-9.2c1.6-2.4,3.6-4,6-6l0,0c3.6-3.2,8.8-6.8,14.8-9.2
	c4.8-2,10.4-3.2,16.4-3.2l0,0h0.4l0,0c11.6,0,22.4,3.6,30.4,10.4c8.4,6.8,13.6,16.8,13.6,28.8l0,0v0.4l0,0c0,18.4-10.4,28-24.4,40.8
	c-1.6,1.6-3.2,3.2-4.8,4.4l0,0l-10.4,10c3.6,0,7.2,0,10.8,0h1.2l0,0c1.2,0,4.8,0,8,0c2.8,0,5.6,0,8.4,0l0,0c4,0,7.6,1.6,10,4.4l0,0
	c2.4,2.8,4,6.4,4,10.4l0,0v0.4l0,0c0,4.4-1.6,8-4,10.4c-2.8,2.4-6,4-10.4,4l0,0h-0.4l0,0h-8.8c-2.8,0-5.2,0-10.4,0
	c-1.2,0-2.4,0-16,0c-6.4,0-13.6,0-21.2,0l0,0c-4.4,0-8.4-1.6-11.2-4.4s-4.4-6.8-4.4-11.2c0-3.2,0.8-6,2-9.2c1.2-2.4,3.2-5.2,6.4-8
	c2-2,5.2-4.8,8.8-8.4c6.8-6.4,15.2-14.4,20.4-19.6l0,0l2.4-2.4l0,0c7.6-7.6,14-14.4,14-20C130,160.321,128.8,157.921,126.4,155.921z
	"/>
<g>
</g>
<g>
</g>
<g>
</g>
<g>
</g>
<g>
</g>
<g>
</g>
<g>
</g>
<g>
</g>
<g>
</g>
<g>
</g>
<g>
</g>
<g>
</g>
<g>
</g>
<g>
</g>
<g>
</g>
</svg>
