<?xml version="1.0" encoding="iso-8859-1"?>
<!-- Generator: Adobe Illustrator 19.0.0, SVG Export Plug-In . SVG Version: 6.00 Build 0)  -->
<svg version="1.1" id="Capa_1" xmlns="http://www.w3.org/2000/svg" xmlns:xlink="http://www.w3.org/1999/xlink" x="0px" y="0px"
	 viewBox="0 0 431.118 431.118" style="enable-background:new 0 0 431.118 431.118;" xml:space="preserve">
<g>
	<g>
		<path d="M187.911,35.342c-2.56-1.536-5.632-0.512-7.168,2.048s-0.512,5.632,2.048,7.168c26.112,14.336,43.008,46.592,43.52,81.92
			c0,17.408-3.584,34.816-11.264,49.664c-1.024,2.56,0,5.632,2.048,6.656c0.512,0.512,1.536,0.512,2.048,0.512
			c2.048,0,3.584-1.024,4.608-3.072c8.192-16.384,12.288-34.816,12.288-54.272C236.039,87.054,217.095,51.726,187.911,35.342z"/>
	</g>
</g>
<g>
	<g>
		<path d="M359.431,206.862c0.512-28.672-13.824-54.784-35.328-66.56c-2.56-1.536-5.632-0.512-7.168,2.048s-0.512,5.632,2.048,7.168
			c18.432,10.24,30.208,32.768,30.72,57.856c0,12.288-2.56,24.576-7.68,35.328c-1.024,2.56,0,5.632,2.048,6.656
			c0.512,0.512,1.536,0.512,2.048,0.512c2.048,0,3.584-1.024,4.608-3.072C356.871,235.022,359.943,221.198,359.431,206.862z"/>
	</g>
</g>
<g>
	<g>
		<path d="M380.935,207.886c-0.512-52.224-35.84-94.208-78.336-93.696c-14.848,0-26.624,4.096-37.376,11.776
			c-0.512-33.792-11.776-65.024-31.744-89.088c-19.968-24.064-46.592-37.376-74.752-36.864c-28.16,0.512-54.784,14.336-74.24,39.424
			C65.031,64.014,54.791,96.27,55.303,130.574c1.024,64,40.448,118.272,91.648,126.464l-2.56,5.632
			c-2.048,4.608-1.536,9.216,1.024,13.312s6.656,6.144,11.264,6.656c0,5.632,0,31.744,26.624,56.832
			c35.84,34.304,19.968,82.432,19.456,84.48c-1.024,2.56,0.512,5.632,3.072,6.656c0.512,0,1.024,0.512,1.536,0.512
			c2.048,0,4.096-1.536,4.608-3.584c1.024-2.048,18.432-55.808-22.016-94.72c-24.576-23.552-23.552-47.104-23.04-49.152h0.512
			c4.608,0,9.216-2.56,11.776-6.656c2.56-4.096,3.072-9.216,1.024-13.312l-2.56-5.632c19.456-3.584,36.864-13.824,51.2-28.672
			c6.144,39.424,30.208,68.608,61.44,74.24l-1.024,4.096c-0.512,3.584,0,7.168,2.56,9.728c2.048,2.56,4.608,4.096,7.68,4.608
			c0,7.68,2.048,31.744,26.624,55.296c15.36,14.848,13.312,31.744,8.192,47.616c-1.024,2.56,0.512,5.632,3.584,6.144
			c0.512,0,1.024,0,1.536,0c2.048,0,4.096-1.536,5.12-3.584c5.632-17.92,8.192-38.912-11.264-57.856
			c-21.504-20.992-23.552-41.984-23.552-48.128c4.096,0,8.192-2.048,10.24-5.12c2.048-2.56,2.56-6.144,1.536-9.728l-1.536-4.608
			C356.359,294.414,381.447,256.014,380.935,207.886z M168.967,247.31c-1.536,0-3.072,1.024-4.096,2.56
			c-1.024,1.536-1.024,3.072,0,4.608l5.632,12.288c1.024,1.536,0,3.072,0,3.584c0,0.512-1.536,1.536-3.072,1.536h-10.24
			c-2.048,0-3.072-1.024-3.072-1.536c0-0.512-1.024-2.048,0-3.584l5.632-11.776c0.512-1.536,0.512-3.072,0-4.608
			c-1.024-1.536-2.56-2.56-4.096-2.56c-50.176-4.096-89.6-55.808-90.112-117.76C65.031,98.318,74.759,68.11,92.679,45.07
			c17.408-22.528,40.96-34.816,66.56-35.328c0.512,0,0.512,0,1.024,0c24.576,0,48.128,11.776,66.048,33.792
			c18.432,22.528,28.672,52.224,29.184,83.968C256.007,189.966,218.119,242.19,168.967,247.31z M313.351,292.366
			c-1.536,0-3.072,1.024-3.584,2.048c-1.024,1.024-1.024,2.56-0.512,4.096l2.56,10.24c0,0.512,0,1.024,0,1.024
			c-0.512,0.512-1.024,1.024-2.56,1.024h-7.68c-1.024,0-2.048-0.512-2.048-1.024c-0.512-0.512-0.512-1.024-0.512-1.024l2.56-9.728
			c0.512-1.536,0-3.072-1.024-4.096c-1.024-1.024-2.048-2.048-3.584-2.048c-31.744-2.56-56.32-33.28-59.392-75.264
			c15.872-20.992,26.112-47.616,28.16-77.824c10.752-10.24,22.016-14.848,37.376-15.36h0.512c36.864,0,67.072,37.376,67.584,83.456
			C371.207,253.454,347.143,288.782,313.351,292.366z"/>
	</g>
</g>
<g>
	<g>
		<path d="M60.935,231.438c0-0.512-0.512-1.024-1.024-1.024l-7.168-1.024l-3.584-6.656c0-0.512-0.512-0.512-1.024-0.512
			c-0.512,0-1.024,0.512-1.024,0.512l-3.584,6.656l-7.168,1.024c-0.512,0-1.024,0.512-1.024,1.024c0,0.512,0,1.024,0.512,1.536
			l5.12,5.12l-1.536,7.168c0,0.512,0,1.024,0.512,1.024c0.512,0.512,1.024,0.512,1.536,0l6.656-3.584l5.632,3.584h0.512
			c0.512,0,0.512,0,0.512,0c0.512-0.512,0.512-0.512,0.512-1.024l-0.512-7.168l5.632-5.12
			C60.935,232.462,60.935,231.95,60.935,231.438z"/>
	</g>
</g>
<g>
	<g>
		<path d="M49.159,56.334c0-0.512-0.512-1.024-1.024-1.024l-7.168-1.024l-3.072-6.656c0-0.512-0.512-0.512-1.024-0.512
			c-0.512,0-1.024,0.512-1.024,0.512l-4.096,6.144l-7.168,1.024c-0.512,0-1.024,0.512-1.024,1.024s0,1.024,0.512,1.536l5.12,5.12
			l-1.536,7.168c0,0.512,0,1.024,0.512,1.024c0.512,0.512,1.024,0.512,1.536,0l6.656-3.584l6.144,4.096h0.512
			c0.512,0,0.512,0,0.512,0c0.512-0.512,0.512-0.512,0.512-1.024l-1.024-7.168l5.632-5.12
			C49.159,57.358,49.159,56.846,49.159,56.334z"/>
	</g>
</g>
<g>
	<g>
		<path d="M407.559,96.782c-0.512-0.512,0-1.024-0.512-1.536c0-0.512-0.512-1.024-1.024-1.024l-7.168-1.024l-3.072-6.656
			c0-0.512-0.512-0.512-1.024-0.512c-0.512,0-1.024,0.512-1.024,0.512l-3.584,6.656l-7.168,1.024c-0.512,0-1.024,0.512-1.024,1.024
			c0,0.512,0,1.024,0.512,1.536l5.12,5.12l-1.536,7.168c0,0.512,0,1.024,0.512,1.024c0.512,0.512,1.024,0.512,1.536,0l6.656-3.584
			l6.656,3.584h0.512c0.512,0,0.512,0,0.512,0c0.512-0.512,0.512-0.512,0.512-1.024l-1.024-7.168L407.559,96.782z"/>
	</g>
</g>
<g>
	<g>
		<path d="M403.975,324.622l-12.288-7.68l-0.512-13.312c0-0.512-0.512-1.024-0.512-1.024c-0.512,0-1.024,0-1.536,0l-10.24,8.704
			l-12.8-3.584c-0.512,0-1.024,0-1.536,0.512c-0.512,0.512-0.512,1.024,0,1.536l5.12,12.288l-7.168,11.264
			c-0.512,0.512-0.512,1.024,0,1.536c0,0.512,0.512,0.512,1.024,0.512l13.312-1.024l8.192,10.24c0,0.512,0.512,0.512,1.024,0.512
			c0,0,0,0,0.512,0c0.512,0,1.024-0.512,1.024-1.024l3.072-12.8l12.8-4.608c0.512,0,1.024-0.512,1.024-1.024
			C404.487,325.134,404.487,324.622,403.975,324.622z"/>
	</g>
</g>
<g>
	<g>
		<path d="M88.583,299.534l-12.288-7.68l-0.512-13.312c0-0.512-0.512-1.024-0.512-1.024c-0.512,0-1.024,0-1.536,0l-10.24,8.704
			l-12.8-3.584c-0.512,0-1.024,0-1.536,0.512c-0.512,0.512-0.512,1.024,0,1.536l5.12,12.288l-7.168,11.264
			c-0.512,0.512-0.512,1.024,0,1.536c0,0.512,0.512,0.512,1.024,0.512l13.312-1.024l8.192,10.24c0,0.512,0.512,0.512,1.024,0.512
			c0,0,0,0,0.512,0c0.512,0,1.024-0.512,1.024-1.024l3.072-12.8l12.8-4.608c0.512,0,1.024-0.512,1.024-1.024
			C89.095,300.046,89.095,299.534,88.583,299.534z"/>
	</g>
</g>
<g>
	<g>
		<path d="M329.223,39.438l-11.264-7.168l-0.512-13.312c0-0.512-0.512-1.024-0.512-1.024c-0.512,0-1.024,0-1.536,0l-10.24,8.704
			l-13.824-3.584c-0.512,0-1.024,0-1.536,0.512c-0.512,0.512-0.512,1.024,0,1.536l5.12,12.288l-7.168,11.264
			c-0.512,0.512-0.512,1.024,0,1.536c0,0,0.512,0,1.024,0l13.312-1.024l8.192,10.24c0,0.512,0.512,0.512,1.024,0.512
			c0,0,0,0,0.512,0c0.512,0,1.024-0.512,1.024-1.024l3.072-12.8l12.8-4.608c0.512,0,1.024-0.512,1.024-1.024
			C329.735,39.95,329.735,39.438,329.223,39.438z"/>
	</g>
</g>
<g>
</g>
<g>
</g>
<g>
</g>
<g>
</g>
<g>
</g>
<g>
</g>
<g>
</g>
<g>
</g>
<g>
</g>
<g>
</g>
<g>
</g>
<g>
</g>
<g>
</g>
<g>
</g>
<g>
</g>
</svg>
