<?xml version="1.0" encoding="iso-8859-1"?>
<!-- Generator: Adobe Illustrator 19.0.0, SVG Export Plug-In . SVG Version: 6.00 Build 0)  -->
<svg version="1.1" id="Capa_1" xmlns="http://www.w3.org/2000/svg" xmlns:xlink="http://www.w3.org/1999/xlink" x="0px" y="0px"
	 viewBox="0 0 512 512" style="enable-background:new 0 0 512 512;" xml:space="preserve">
<g>
	<g>
		<path d="M462,27H50C22.43,27,0,49.43,0,77v358c0,27.57,22.43,50,50,50h412c27.57,0,50-22.43,50-50V77C512,49.43,489.57,27,462,27z
			 M492,435c0,16.542-13.458,30-30,30H50c-16.542,0-30-13.458-30-30V77c0-16.542,13.458-30,30-30h412c16.542,0,30,13.458,30,30V435z
			"/>
	</g>
</g>
<g>
	<g>
		<path d="M64,96c-5.523,0-10,4.477-10,10v315c0,5.523,4.477,10,10,10s10-4.477,10-10V106C74,100.477,69.523,96,64,96z"/>
	</g>
</g>
<g>
	<g>
		<path d="M112,96c-5.523,0-10,4.477-10,10v208c0,5.523,4.477,10,10,10s10-4.477,10-10V106C122,100.477,117.523,96,112,96z"/>
	</g>
</g>
<g>
	<g>
		<path d="M167.07,306.93c-1.86-1.86-4.44-2.93-7.07-2.93s-5.21,1.07-7.07,2.93S150,311.37,150,314s1.07,5.21,2.93,7.07
			c1.86,1.86,4.44,2.93,7.07,2.93s5.21-1.07,7.07-2.93S170,316.63,170,314S168.93,308.79,167.07,306.93z"/>
	</g>
</g>
<g>
	<g>
		<path d="M160,96c-5.523,0-10,4.477-10,10v171.25c0,5.523,4.477,10,10,10s10-4.477,10-10V106C170,100.477,165.523,96,160,96z"/>
	</g>
</g>
<g>
	<g>
		<path d="M216,96c-5.523,0-10,4.477-10,10v208c0,5.523,4.477,10,10,10s10-4.477,10-10V106C226,100.477,221.523,96,216,96z"/>
	</g>
</g>
<g>
	<g>
		<path d="M256,96c-5.523,0-10,4.477-10,10v208c0,5.523,4.477,10,10,10s10-4.477,10-10V106C266,100.477,261.523,96,256,96z"/>
	</g>
</g>
<g>
	<g>
		<path d="M294,96c-5.523,0-10,4.477-10,10v208c0,5.523,4.477,10,10,10s10-4.477,10-10V106C304,100.477,299.523,96,294,96z"/>
	</g>
</g>
<g>
	<g>
		<path d="M352,96c-5.523,0-10,4.477-10,10v208c0,5.523,4.477,10,10,10s10-4.477,10-10V106C362,100.477,357.523,96,352,96z"/>
	</g>
</g>
<g>
	<g>
		<path d="M407.07,306.93c-1.86-1.86-4.44-2.93-7.07-2.93s-5.21,1.07-7.07,2.93c-1.86,1.86-2.93,4.44-2.93,7.07s1.07,5.21,2.93,7.07
			c1.86,1.86,4.44,2.93,7.07,2.93s5.21-1.07,7.07-2.93c1.86-1.86,2.93-4.44,2.93-7.07S408.93,308.79,407.07,306.93z"/>
	</g>
</g>
<g>
	<g>
		<path d="M400,96c-5.523,0-10,4.477-10,10v171.25c0,5.523,4.477,10,10,10s10-4.477,10-10V106C410,100.477,405.523,96,400,96z"/>
	</g>
</g>
<g>
	<g>
		<path d="M448,96c-5.523,0-10,4.477-10,10v315c0,5.523,4.477,10,10,10s10-4.477,10-10V106C458,100.477,453.523,96,448,96z"/>
	</g>
</g>
<g>
	<g>
		<path d="M201.889,410.545h-3.141c6.971-8.359,13.141-18.756,13.141-29.371c0.001-14.197-9.915-24.112-24.112-24.112
			c-13.295,0-24.112,10.816-24.112,24.112c0,5.523,4.477,10,10,10c5.523,0,10-4.477,10-10c0-2.267,1.845-4.112,4.112-4.112
			c3.706,0,4.112,1.317,4.112,4.112c0,9.294-14.126,23.91-24.148,31.314c-3.482,2.56-4.925,7.067-3.578,11.174
			c1.348,4.106,5.18,6.883,9.502,6.883h28.224c5.523,0,10-4.477,10-10S207.412,410.545,201.889,410.545z"/>
	</g>
</g>
<g>
	<g>
		<path d="M134.591,357.212c-3.735-1.548-8.037-0.692-10.898,2.167l-18.764,18.764c-3.905,3.905-3.905,10.237,0,14.143
			c3.905,3.906,10.237,3.905,14.143,0l1.693-1.693v29.858c0,5.523,4.477,10,10,10s10-4.477,10-10v-54
			C140.764,362.406,138.328,358.76,134.591,357.212z"/>
	</g>
</g>
<g>
	<g>
		<path d="M384.357,379.714h-0.428v-3.264h13.661c5.523,0,10-4.477,10-10s-4.477-10-10-10h-23.661c-5.523,0-10,4.477-10,10v23.264
			c0,5.523,4.477,10,10,10h10.428c3.112,0,5.643,2.531,5.643,5.643S387.469,411,384.357,411h-10.428c-5.523,0-10,4.477-10,10
			s4.477,10,10,10h10.428c14.14,0,25.643-11.503,25.643-25.643C410,391.218,398.497,379.714,384.357,379.714z"/>
	</g>
</g>
<g>
	<g>
		<path d="M339.618,384.608v-13.271c0-5.523-4.477-10-10-10s-10,4.477-10,10v12.388h-4.004v-12.388c0-5.523-4.477-10-10-10
			s-10,4.477-10,10v22.388c0,5.523,4.477,10,10,10h14.004v12.438c0,5.523,4.477,10,10,10s10-4.477,10-10v-13.321
			c3.479-1.565,5.906-5.054,5.906-9.117C345.524,389.662,343.097,386.173,339.618,384.608z"/>
	</g>
</g>
<g>
	<g>
		<path d="M276.625,380.521c0-12.867-10.468-23.334-23.334-23.334h-11.569c-5.523,0-10,4.477-10,10s4.477,10,10,10h11.569
			c1.839,0,3.334,1.496,3.334,3.334c0,1.587-1.115,2.912-2.602,3.248c-0.244-0.008-12.301-0.019-12.301-0.019
			c-5.523,0-10,4.477-10,10s4.477,10,10,10c0,0,12.058,0.094,12.301,0.087c1.487,0.335,2.602,1.661,2.602,3.248
			c0,1.839-1.496,3.334-3.334,3.334h-11.569c-5.523,0-10,4.477-10,10s4.477,10,10,10h11.569c12.867,0,23.334-10.468,23.334-23.334
			c0-4.932-1.542-9.509-4.165-13.282C275.082,390.03,276.625,385.454,276.625,380.521z"/>
	</g>
</g>
<g>
</g>
<g>
</g>
<g>
</g>
<g>
</g>
<g>
</g>
<g>
</g>
<g>
</g>
<g>
</g>
<g>
</g>
<g>
</g>
<g>
</g>
<g>
</g>
<g>
</g>
<g>
</g>
<g>
</g>
</svg>
