<?xml version="1.0" encoding="iso-8859-1"?>
<!-- Generator: Adobe Illustrator 19.0.0, SVG Export Plug-In . SVG Version: 6.00 Build 0)  -->
<svg version="1.1" id="Capa_1" xmlns="http://www.w3.org/2000/svg" xmlns:xlink="http://www.w3.org/1999/xlink" x="0px" y="0px"
	 viewBox="0 0 346.4 346.4" style="enable-background:new 0 0 346.4 346.4;" xml:space="preserve">
<g>
	<path style="fill:#FFCC66;" d="M10.4,23.8h263.2c5.6,0,10.4,4.8,10.4,10.4V297c0,5.6-4.8,10.4-10.4,10.4H10.4
		C4.8,307.4,0,302.6,0,297V33.8C0,28.2,4.8,23.8,10.4,23.8"/>
	<path style="fill:#EAAA5E;" d="M41.6,307.4V23.8H10.4C4.8,23.8,0,28.6,0,34.2V297c0,5.6,4.8,10.4,10.4,10.4H41.6z"/>
	<polygon style="fill:#DDAC57;" points="125.2,78.6 127.6,82.2 129.6,85.8 131.6,82.2 133.6,78.6 135.6,82.2 137.6,85.8 140,82.2 
		142,78.6 144,82.2 146,85.8 148,82.2 150,78.6 152.4,82.2 154.4,85.8 156.4,82.2 158.4,78.6 160.4,82.2 162.8,85.8 162.8,23.8 
		121.2,23.8 121.2,85.8 123.2,82.2 	"/>
	<path style="fill:#D1D1D1;" d="M206.8,127h124.8c8,0,14.8,6.8,14.8,14.8v166c0,8-6.8,14.8-14.8,14.8H206.8c-8,0-14.8-6.8-14.8-14.8
		v-166C192,133.4,198.4,127,206.8,127"/>
	<path style="fill:#FFCC66;" d="M220,163h98.4c6.4,0,11.6,5.2,11.6,11.6V295c0,6.4-5.2,11.6-11.6,11.6H220
		c-6.4,0-11.6-5.2-11.6-11.6V174.6C208.4,168.2,213.6,163,220,163"/>
	<path style="fill:#FFFFFF;" d="M282.4,141.4H278c0-5.2-4-9.2-9.2-9.2s-9.2,4-9.2,9.2h-4.4c-3.6,0-6.8,3.2-6.8,6.8l0,0
		c0,3.6,3.2,6.8,6.8,6.8H282c3.6,0,6.8-3.2,6.8-6.8l0,0C289.2,144.2,286.4,141.4,282.4,141.4z"/>
</g>
<g>
	<path style="fill:#FFFFFF;" d="M224.4,188.2c-1.6-1.6-1.6-4.4,0-6s4.4-1.6,6,0l3.6,3.6l7.6-7.6c1.6-1.6,4.4-1.6,6,0s1.6,4.4,0,6
		L237.2,195c-1.6,1.6-4.4,1.6-6,0L224.4,188.2z"/>
	<path style="fill:#FFFFFF;" d="M224.4,220.2c-1.6-1.6-1.6-4.4,0-6s4.4-1.6,6,0l3.6,3.6l7.6-7.6c1.6-1.6,4.4-1.6,6,0s1.6,4.4,0,6
		L237.2,227c-1.6,1.6-4.4,1.6-6,0L224.4,220.2z"/>
	<path style="fill:#FFFFFF;" d="M224.4,252.2c-1.6-1.6-1.6-4.4,0-6s4.4-1.6,6,0l3.6,3.6l7.6-7.6c1.6-1.6,4.4-1.6,6,0s1.6,4.4,0,6
		L237.2,259c-1.6,1.6-4.4,1.6-6,0L224.4,252.2z"/>
	<path style="fill:#FFFFFF;" d="M224.4,284.2c-1.6-1.6-1.6-4.4,0-6s4.4-1.6,6,0l3.6,3.6l7.6-7.6c1.6-1.6,4.4-1.6,6,0s1.6,4.4,0,6
		L237.2,291c-1.6,1.6-4.4,1.6-6,0L224.4,284.2z"/>
	<path style="fill:#FFFFFF;" d="M261.6,221.4c-2,0-3.2-1.6-3.2-3.2c0-2,1.6-3.2,3.2-3.2h50c2,0,3.2,1.6,3.2,3.2c0,2-1.6,3.2-3.2,3.2
		H261.6z M261.6,254.6c-2,0-3.2-1.6-3.2-3.2c0-2,1.6-3.2,3.2-3.2h50c2,0,3.2,1.6,3.2,3.2c0,2-1.6,3.2-3.2,3.2H261.6z M261.6,288.2
		c-2,0-3.2-1.6-3.2-3.2c0-2,1.6-3.2,3.2-3.2h50c2,0,3.2,1.6,3.2,3.2c0,2-1.6,3.2-3.2,3.2H261.6z M261.6,188.2c-2,0-3.2-1.6-3.2-3.2
		c0-2,1.6-3.2,3.2-3.2h50c2,0,3.2,1.6,3.2,3.2c0,2-1.6,3.2-3.2,3.2H261.6z"/>
</g>
<g>
</g>
<g>
</g>
<g>
</g>
<g>
</g>
<g>
</g>
<g>
</g>
<g>
</g>
<g>
</g>
<g>
</g>
<g>
</g>
<g>
</g>
<g>
</g>
<g>
</g>
<g>
</g>
<g>
</g>
</svg>
