<?xml version="1.0" encoding="iso-8859-1"?>
<!-- Generator: Adobe Illustrator 16.0.0, SVG Export Plug-In . SVG Version: 6.00 Build 0)  -->
<!DOCTYPE svg PUBLIC "-//W3C//DTD SVG 1.1//EN" "http://www.w3.org/Graphics/SVG/1.1/DTD/svg11.dtd">
<svg version="1.1" id="Capa_1" xmlns="http://www.w3.org/2000/svg" xmlns:xlink="http://www.w3.org/1999/xlink" x="0px" y="0px"
	 width="185.888px" height="185.888px" viewBox="0 0 185.888 185.888" style="enable-background:new 0 0 185.888 185.888;"
	 xml:space="preserve">
<g>
	<path d="M169.115,18.805C144.902-6.103,107.52,0.143,86.173,21.033c-0.76-0.226-1.789,0.423-1.426,1.312
		c0.007,0.017,0.016,0.032,0.022,0.049c-12.673,13.221-19.046,31.841-12.327,52.05c-0.021,0.234,0.063,0.476,0.237,0.711
		c0.227,0.652,0.4,1.298,0.653,1.954c-0.185-0.17-0.363-0.339-0.598-0.513c-0.915-0.677-2.333-0.52-3.265,0
		c-12.784,7.137-23.21,22.559-33.365,32.95c-6.692,6.846-13.368,13.707-19.811,20.789c-3.711,4.078-9.02,8.867-10.361,14.392
		c-0.174,0.293-0.31,0.626-0.36,1.032c-1.313,10.534-4.011,20.761-5.518,31.243c-0.354,2.461,0.98,4.867,3.728,4.895
		c12.116,0.114,24.188,1.278,36.304,1.392c1.949,0.019,3.137-1.142,3.581-2.57c1.573,0.167,3.359-0.813,3.237-2.688
		c-0.447-6.832,0.212-13.322,1.325-19.972c3.917,0.456,7.985-0.192,11.564,1.548c2.391,1.163,5.374-0.223,5.383-3.089
		c0.017-4.877-0.084-9.694-0.743-14.488c6.234-0.26,12.418-0.028,18.68,0.453c2.77,0.213,4.071-3.039,2.974-5.184
		c-0.989-1.934-1.612-3.975-2.293-5.982c10.751,0.705,22.432-1.833,23.948-14.183c0.036,0.017,0.061,0.04,0.099,0.056
		C167.729,143.708,211.256,62.154,169.115,18.805z M155.994,19.079c7.66,4.634,13.062,10.676,16.645,17.428
		c-8.285-7.544-17.267-14.521-25.84-21.793C149.975,15.87,153.062,17.305,155.994,19.079z M140.874,12.94
		c10.688,11.33,22.781,22.523,34.98,32.011c0.082,0.064,0.171,0.081,0.255,0.131c0.728,2.516,1.305,5.074,1.62,7.677
		c-15.535-15.073-33.438-27.961-50.438-41.33C131.854,11.361,136.421,11.881,140.874,12.94z M140.735,35.699
		c-0.461-0.533-1.01-1.004-1.514-1.506c5.396,0.889,9.733,1.217,11.656,7.309c1.985,6.289-2.191,11.338-8.439,12.032
		c-5.879,0.654-10.207-2.596-10.325-8.571c-0.073-3.656,1.6-6.414,4.005-8.574c0.874,0.642,1.742,1.296,2.653,1.854
		C140.418,39.25,141.892,37.042,140.735,35.699z M123.481,11.598c5.99,5.417,12.062,10.727,18.152,16.013
		c-1.168,0.254-2.324,0.718-3.44,1.466c-0.288,0.193-0.516,0.457-0.713,0.744c-0.895,0.095-1.749,0.302-2.56,0.604
		c-2.722-2.099-5.594-4.059-8.182-6.11c-4.441-3.519-8.794-7.148-12.927-11.027C116.979,12.412,120.221,11.879,123.481,11.598z
		 M111.44,14.006c-0.006,0.293,0.094,0.599,0.362,0.875c4.031,4.125,8.318,7.93,12.736,11.634c2.288,1.919,4.539,4.04,6.851,6.074
		c-0.923,0.782-1.789,1.646-2.522,2.653c-4.166-3.328-8.789-6.249-12.901-9.566c-3.707-2.992-7.354-6.092-11.146-8.99
		C106.971,15.632,109.186,14.748,111.44,14.006z M88.32,29.562c6.908,12.193,17.49,22.179,27.849,31.5
		c-10.78-8.431-21.791-16.573-32.419-25.206C85.054,33.662,86.615,31.578,88.32,29.562z M36.339,122.41
		c3.138,3.027,6.403,5.909,9.807,8.643c3.243,2.603,6.742,5.798,10.583,7.655c-0.054,0.407-0.082,0.828,0.015,1.296
		c0.507,2.465,0.794,4.931,0.977,7.404c-3.566-3.317-8.245-5.803-12.144-8.638c-4.855-3.532-9.325-7.438-13.364-11.839
		C33.565,125.458,34.946,123.942,36.339,122.41z M8.142,174.271c0.556-4.144,1.143-8.331,1.56-12.524
		c2.846,2.991,5.745,5.932,8.755,8.759c1.35,1.267,2.939,2.927,4.66,4.386C18.127,174.649,13.137,174.396,8.142,174.271z
		 M40.089,175.46c-3.388-0.023-6.772-0.137-10.156-0.272c-2.453-2.782-6.216-4.772-9.022-7.136
		c-3.774-3.179-7.32-6.616-10.934-9.976c0.162-2.257,0.242-4.512,0.25-6.761c5.437,4.912,10.735,9.96,16.401,14.614
		c4.07,3.344,9.07,7.728,14.303,9.292c0.012,0.11,0.007,0.22,0.02,0.33C40.682,175.494,40.395,175.462,40.089,175.46z
		 M40.664,170.718c-4.509-2.724-9.08-5.09-13.361-8.477c-5.425-4.29-10.552-8.955-15.865-13.38
		c-0.147-0.123-0.304-0.199-0.461-0.252c1.03-0.693,2.856-2.372,5.239-4.743c3.61,3.562,7.338,6.997,11.347,10.117
		c3.469,2.699,7.983,6.467,12.526,6.79c0.503,0.036,0.861-0.143,1.11-0.417C40.83,163.812,40.589,167.26,40.664,170.718z
		 M41.403,158.529c-0.118-0.263-0.283-0.506-0.522-0.681c-3.872-2.83-8.6-4.609-12.578-7.485c-3.565-2.577-6.92-5.456-10.16-8.44
		c1.283-1.311,2.695-2.783,4.191-4.361c2.733,3.029,5.763,5.765,9.029,8.282c3.16,2.435,6.823,5.749,10.633,8.172
		C41.787,155.523,41.583,157.029,41.403,158.529z M47.208,150.847c-0.476-0.215-1.031-0.333-1.598-0.356
		c-2.977-2.203-6.54-3.948-9.413-5.869c-4.186-2.798-8.179-5.816-11.692-9.364c1.834-1.956,3.783-4.058,5.802-6.251
		c2.961,3.839,6.451,7.212,10.133,10.396c4.762,4.12,10.434,9.445,16.183,12.005c0.452,0.202,0.905,0.225,1.312,0.131
		c0.006,0.214,0.02,0.427,0.024,0.64C54.3,151.931,50.569,152.366,47.208,150.847z M63.672,137.753
		c-0.632-2.129-2.658-2.647-4.373-2.064c-2.949-2.478-6.556-4.369-9.681-6.585c-3.905-2.768-7.631-5.789-11.23-8.947
		c1.861-2.052,3.74-4.131,5.612-6.207c5.387,4.909,10.876,9.696,16.616,14.195c3.57,2.8,7.443,6.022,11.604,8.386
		C69.354,136.839,66.5,137.208,63.672,137.753z M62.905,125.177c-5.825-4.227-11.278-8.947-16.79-13.575
		c1.824-2.026,3.633-4.039,5.401-6.009c3.871,2.423,7.7,4.909,11.441,7.544c4.621,3.253,8.812,7.256,13.317,10.706
		c-1.85,0.872-3.152,2.918-1.662,4.919c1.275,1.713,2.101,3.695,2.863,5.718C72.814,131.165,67.544,128.542,62.905,125.177z
		 M82.722,124.114c-7.337-8.577-18.934-15.015-29.399-20.533c2.51-2.8,4.912-5.478,7.153-7.975
		c3.013,4.492,10.772,9.967,12.715,11.714c4.703,4.229,9.519,8.338,14.452,12.295c1.558,1.249,3.354,2.97,5.286,4.307
		C89.729,124.79,86.124,124.609,82.722,124.114z M97.492,121.516c-1.607-1.304-3.519-2.329-5.163-3.508
		c-4.43-3.175-8.673-6.613-12.887-10.066c-2.274-1.863-12.211-12.148-16.805-14.744c2.131-2.371,4.034-4.48,5.705-6.318
		c10.287,10.123,21.208,20.441,32.866,28.88C100.133,117.947,99.139,119.961,97.492,121.516z M105.706,113.183
		c-0.479-0.16-0.982-0.19-1.479-0.154c-11.103-9.566-22.642-18.919-34.111-28.092c2.8-3.057,4.549-4.888,4.657-4.79
		c0.31,0.275,0.881-0.098,0.611-0.464c0.669,0.254,1.399,0.247,2.049,0.043c8.547,8.074,16.994,16.256,25.631,24.234
		c1.884,1.738,3.933,3.674,6.106,5.596C107.415,110.036,106.062,111.558,105.706,113.183z M124.361,113.369
		c-6.953-4.768-14.356-8.979-20.956-14.445c-8.289-6.866-15.925-14.505-24.154-21.436c0.024-0.33,0.008-0.68-0.092-1.068
		c-1.272-4.948-1.942-9.823-2.046-14.568c17.322,18.427,36.742,37.862,57.679,51.768
		C131.429,113.959,127.955,113.928,124.361,113.369z M141.619,112.357C120.811,93.14,98.337,75.493,77.23,56.464
		c0.246-3.188,0.816-6.286,1.646-9.297c18.669,24.348,44.006,43.368,66.68,63.838C144.268,111.515,142.961,111.98,141.619,112.357z
		 M150.408,108.716c-22.071-23.071-49.697-39.918-70.715-64.12c0.622-1.837,1.389-3.621,2.24-5.371
		c12.053,10.803,25.089,20.532,37.59,30.796c13.271,10.895,24.084,23.262,36.09,35.341
		C153.949,106.596,152.214,107.723,150.408,108.716z M158.64,102.913c-2.652-5.225-6.297-9.96-10.418-14.36
		c4.826,3.68,9.741,7.11,14.738,10.103C161.595,100.165,160.155,101.59,158.64,102.913z M165.994,94.981
		c-22.952-24.901-57.046-38.393-75.777-67.576c2.185-2.29,4.626-4.457,7.407-6.445c1.515-1.083,3.09-2.04,4.691-2.938
		c3.833,3.266,7.685,6.513,11.484,9.82c4.077,3.549,8.369,7.778,13.082,10.818c-0.711,1.617-1.218,3.333-1.473,5.057
		c-9.045-8.044-19.71-16.604-31.293-18.509c-0.96-0.159-1.673,1.139-0.702,1.665c11.965,6.489,22.318,14.166,32.244,22.999
		c1.371,5.164,5.599,8.701,10.712,10.132c10.356,10.457,19.997,22.358,31.728,31.115c0.143,0.106,0.28,0.14,0.42,0.204
		C167.713,92.571,166.887,93.806,165.994,94.981z M170.633,87.734c-7.938-9.581-17.218-18.559-26.617-27.189
		c3.162-0.389,5.849-1.548,8.064-3.186c0.046,0.128,0.12,0.257,0.227,0.382c4.17,4.808,9.104,8.866,14.06,12.834
		c2.792,2.237,5.644,4.867,8.713,6.969C173.905,81.071,172.416,84.494,170.633,87.734z M168.303,68.065
		c-5.055-3.685-9.746-7.772-14.539-11.78c-0.073-0.06-0.147-0.086-0.222-0.126c1.509-1.434,2.687-3.162,3.53-5.083
		c5.256,5.754,11.076,12.238,17.955,15.491c1.642,0.776,3.717-1.408,2.085-2.702c-6.55-5.193-12.86-10.314-19.011-15.954
		c0.385-1.787,0.507-3.688,0.312-5.666c6.655,5.837,13.273,11.721,19.727,17.813c-0.082,4.477-0.732,8.964-1.854,13.34
		C173.647,71.547,170.802,69.886,168.303,68.065z"/>
</g>
<g>
</g>
<g>
</g>
<g>
</g>
<g>
</g>
<g>
</g>
<g>
</g>
<g>
</g>
<g>
</g>
<g>
</g>
<g>
</g>
<g>
</g>
<g>
</g>
<g>
</g>
<g>
</g>
<g>
</g>
</svg>
