<?xml version="1.0" standalone="no"?>
<!DOCTYPE svg PUBLIC "-//W3C//DTD SVG 20010904//EN"
 "http://www.w3.org/TR/2001/REC-SVG-20010904/DTD/svg10.dtd">
<svg version="1.0" xmlns="http://www.w3.org/2000/svg"
 width="292.000000pt" height="100.000000pt" viewBox="0 0 292.000000 100.000000"
 preserveAspectRatio="xMidYMid meet">
<metadata>
Created by potrace 1.14, written by Peter Selinger 2001-2017
</metadata>
<g transform="translate(0.000000,100.000000) scale(0.100000,-0.100000)"
fill="#000000" stroke="none">
<path d="M1815 989 c-127 -15 -259 -91 -332 -191 l-35 -48 277 0 c218 0 276
-3 272 -12 -2 -7 -10 -30 -18 -50 l-13 -38 -166 0 -167 0 -11 -39 c-7 -21 -12
-41 -12 -44 0 -4 69 -8 153 -9 170 -3 163 0 132 -75 l-14 -33 -155 0 -154 0
-16 -47 c-9 -26 -16 -48 -16 -50 0 -2 73 -3 163 -3 90 0 166 -3 169 -6 4 -3 0
-22 -8 -41 -9 -19 -13 -37 -11 -39 5 -6 161 123 165 136 2 5 -17 44 -42 85
l-46 75 95 0 c93 0 94 0 115 -30 l22 -30 41 30 c36 26 49 30 105 30 l65 0 -7
43 c-11 70 -70 179 -130 239 -113 115 -259 166 -421 147z"/>
<path d="M124 666 c-43 -19 -64 -53 -64 -103 0 -49 19 -74 77 -98 72 -30 94
-73 55 -108 -26 -24 -93 -22 -119 2 -19 18 -23 18 -42 5 -31 -22 -26 -41 19
-64 101 -52 230 3 230 99 0 50 -21 76 -89 111 -66 33 -78 52 -56 86 22 34 61
41 102 19 33 -18 34 -18 55 2 l21 22 -34 20 c-40 24 -108 27 -155 7z"/>
<path d="M370 527 c-21 -126 -22 -146 -9 -172 42 -87 174 -101 251 -28 34 32
42 58 68 198 27 149 27 147 -12 143 l-32 -3 -22 -127 c-30 -171 -46 -197 -116
-198 -46 0 -78 28 -78 68 0 15 9 76 20 136 11 60 20 113 20 118 0 4 -15 8 -33
8 l-33 0 -24 -143z"/>
<path d="M786 653 c-3 -10 -17 -85 -31 -168 -14 -82 -29 -160 -32 -172 -5 -21
-1 -23 30 -23 l35 0 12 73 c20 117 38 208 42 212 2 3 31 -61 64 -140 l59 -145
42 0 c49 0 42 -19 78 190 14 80 27 155 30 168 5 19 1 22 -29 22 l-34 0 -16
-87 c-8 -49 -18 -107 -22 -131 -4 -23 -10 -45 -14 -47 -4 -3 -34 56 -66 130
l-57 135 -43 0 c-32 0 -44 -4 -48 -17z"/>
<path d="M1167 648 c-9 -32 -1 -38 54 -38 33 0 49 -4 49 -13 0 -7 -11 -77 -25
-155 -14 -78 -25 -145 -25 -147 0 -3 15 -5 34 -5 l33 0 12 73 c6 39 19 111 27
159 l16 86 59 7 c54 6 59 9 59 31 l0 24 -144 0 c-139 0 -144 -1 -149 -22z"/>
<path d="M2476 508 c-16 -90 -30 -176 -33 -191 -6 -27 -4 -28 28 -25 31 3 34
6 41 48 18 113 17 110 46 110 24 0 30 -8 61 -80 34 -80 34 -80 72 -80 l38 0
-39 84 -38 84 29 12 c41 18 69 56 69 97 0 77 -41 103 -163 103 l-83 0 -28
-162z"/>
<path d="M2816 508 c-16 -90 -30 -175 -33 -190 -5 -26 -3 -28 28 -28 l34 0 28
163 c16 89 31 174 34 190 5 25 3 27 -29 27 l-34 0 -28 -162z"/>
<path d="M2297 464 l-78 -66 27 -46 c15 -26 36 -60 45 -77 l18 -29 25 54 c26
57 50 172 44 209 -3 18 -12 13 -81 -45z"/>
<path d="M2068 271 l-36 -31 -286 0 c-202 0 -286 -3 -286 -11 0 -23 136 -146
190 -172 155 -75 308 -74 460 1 53 26 190 150 190 172 0 6 -31 10 -79 10 -77
0 -79 1 -99 31 l-19 31 -35 -31z"/>
</g>
</svg>
