<svg id="svg" version="1.1" width="500" height="585" xmlns="http://www.w3.org/2000/svg" xmlns:xlink="http://www.w3.org/1999/xlink" style="display: block;"><g id="svgg"><path id="path0" d="M181.600 0.563 C 179.180 0.710,176.480 1.155,175.600 1.553 C 174.720 1.950,171.845 2.497,169.211 2.767 C 166.577 3.037,164.075 3.605,163.651 4.029 C 163.227 4.453,161.872 4.800,160.640 4.800 C 159.408 4.800,158.400 5.114,158.400 5.497 C 158.400 5.880,156.600 6.433,154.400 6.724 C 152.200 7.016,150.400 7.603,150.400 8.028 C 150.400 8.452,149.500 8.800,148.400 8.800 C 147.300 8.800,146.400 9.160,146.400 9.600 C 146.400 10.040,145.860 10.400,145.200 10.400 C 144.540 10.400,144.000 10.799,144.000 11.286 C 144.000 11.773,143.486 11.974,142.858 11.733 C 141.552 11.232,136.800 12.834,136.800 13.775 C 136.800 14.119,136.260 14.400,135.600 14.400 C 134.940 14.400,134.400 14.760,134.400 15.200 C 134.400 15.640,133.706 16.000,132.857 16.000 C 132.009 16.000,130.774 16.540,130.114 17.200 C 129.454 17.860,128.529 18.400,128.057 18.400 C 127.586 18.400,127.200 18.721,127.200 19.113 C 127.200 19.506,126.300 20.052,125.200 20.329 C 124.100 20.605,123.200 21.184,123.200 21.615 C 123.200 22.047,122.660 22.400,122.000 22.400 C 121.201 22.400,120.800 23.199,120.800 24.793 C 120.800 26.320,120.221 27.548,119.200 28.186 C 118.320 28.735,117.600 29.521,117.600 29.932 C 117.600 30.343,118.410 29.934,119.400 29.024 C 124.346 24.476,146.665 12.000,149.855 12.000 C 150.419 12.000,151.222 11.683,151.640 11.295 C 152.295 10.686,158.485 8.616,168.800 5.554 C 172.455 4.469,179.394 3.171,184.344 2.645 C 188.739 2.178,192.340 -0.120,188.257 0.148 C 187.016 0.229,184.020 0.416,181.600 0.563 M200.600 0.539 C 205.550 0.711,209.600 1.166,209.600 1.551 C 209.600 1.937,211.490 2.432,213.800 2.653 C 218.952 3.145,225.731 4.407,230.000 5.669 C 237.501 7.887,245.299 10.497,246.589 11.221 C 247.353 11.649,248.390 12.000,248.893 12.000 C 250.623 12.000,266.009 20.142,272.800 24.651 C 288.715 35.217,306.982 57.847,310.052 70.800 C 310.365 72.120,310.856 73.560,311.143 74.000 C 314.806 79.604,318.767 107.832,316.981 115.600 L 316.246 118.800 315.719 114.000 C 315.016 107.594,312.816 95.196,312.028 93.200 C 311.681 92.320,310.386 88.410,309.150 84.510 C 303.312 66.083,288.109 44.161,274.398 34.399 L 272.103 32.765 271.547 36.582 C 270.165 46.053,264.179 52.568,253.200 56.549 C 247.142 58.746,150.536 58.781,144.538 56.588 C 133.132 52.420,126.462 44.879,126.418 36.105 L 126.400 32.610 123.400 34.825 C 119.511 37.696,109.000 48.294,105.970 52.400 C 104.672 54.160,103.427 55.780,103.205 56.000 C 101.931 57.259,92.800 73.714,92.800 74.750 C 92.800 75.261,92.489 76.022,92.109 76.440 C 90.169 78.575,84.743 97.285,83.188 107.200 C 81.095 120.552,79.067 119.709,80.682 106.158 C 81.165 102.111,81.772 96.640,82.033 94.000 C 82.293 91.360,82.822 88.120,83.208 86.800 C 83.594 85.480,84.691 81.700,85.645 78.400 C 87.702 71.287,88.707 68.813,92.866 60.637 C 96.564 53.364,96.485 53.800,94.113 53.800 C 92.524 53.800,89.899 56.631,89.108 59.200 C 88.158 62.285,87.700 63.200,87.107 63.200 C 86.718 63.200,86.400 63.920,86.400 64.800 C 86.400 65.680,86.044 66.400,85.609 66.400 C 85.175 66.400,84.589 67.840,84.307 69.600 C 84.026 71.360,83.482 72.800,83.098 72.800 C 82.714 72.800,82.400 73.670,82.400 74.733 C 82.400 75.797,82.125 76.787,81.788 76.933 C 80.917 77.313,78.400 85.733,78.400 88.270 C 78.400 89.442,78.073 90.400,77.674 90.400 C 76.630 90.400,75.866 98.172,75.866 108.800 C 75.866 119.428,76.630 127.200,77.674 127.200 C 78.073 127.200,78.400 128.083,78.400 129.162 C 78.400 132.777,80.056 135.420,81.297 133.786 C 82.688 131.953,82.660 131.200,81.200 131.200 C 80.540 131.200,80.007 130.930,80.015 130.600 C 80.045 129.437,85.600 123.633,85.600 124.765 C 85.600 126.001,89.665 120.034,92.404 114.777 C 95.237 109.340,114.083 78.545,115.155 77.600 C 115.405 77.380,116.652 75.760,117.928 74.000 C 119.203 72.240,121.341 69.630,122.680 68.200 L 125.114 65.600 198.847 65.600 L 272.581 65.600 276.239 69.510 C 280.305 73.858,290.592 89.334,298.365 102.800 C 306.246 116.452,309.642 121.530,310.662 121.187 C 311.842 120.791,317.600 127.915,317.600 129.772 C 317.600 130.748,318.009 130.999,319.000 130.633 C 321.021 129.888,321.574 128.779,321.588 125.447 C 321.594 123.823,321.960 122.272,322.400 122.000 C 323.433 121.361,323.469 96.469,322.439 94.589 C 322.021 93.825,321.455 91.130,321.182 88.600 C 320.908 86.070,320.351 84.000,319.942 84.000 C 319.534 84.000,319.200 83.100,319.200 82.000 C 319.200 80.900,318.840 80.000,318.400 80.000 C 317.960 80.000,317.600 79.121,317.600 78.047 C 317.600 76.973,317.287 75.901,316.905 75.665 C 316.523 75.429,315.979 73.787,315.696 72.018 C 315.413 70.248,314.825 68.800,314.391 68.800 C 313.956 68.800,313.600 67.900,313.600 66.800 C 313.600 65.700,313.330 64.799,313.000 64.797 C 312.670 64.795,311.734 63.175,310.921 61.197 C 310.107 59.219,309.159 57.600,308.814 57.600 C 308.469 57.600,307.989 56.844,307.747 55.920 C 307.505 54.995,306.956 54.456,306.526 54.722 C 305.393 55.422,303.200 54.406,303.200 53.181 C 303.200 52.605,302.930 52.013,302.600 51.867 C 302.270 51.720,300.523 49.616,298.718 47.191 C 295.124 42.362,285.949 32.937,281.282 29.280 C 279.592 27.956,278.499 26.496,278.735 25.880 C 279.380 24.201,278.378 22.400,276.800 22.400 C 276.014 22.400,275.164 21.860,274.911 21.200 C 274.657 20.540,273.798 20.000,273.002 20.000 C 272.205 20.000,271.044 19.293,270.421 18.429 C 269.799 17.566,268.279 16.637,267.045 16.366 C 265.810 16.095,264.800 15.541,264.800 15.136 C 264.800 14.731,264.080 14.400,263.200 14.400 C 262.320 14.400,261.600 14.125,261.600 13.789 C 261.600 12.954,255.566 10.400,253.595 10.400 C 252.718 10.400,252.000 10.128,252.000 9.795 C 252.000 8.937,247.835 7.202,244.460 6.655 C 242.887 6.399,241.600 5.878,241.600 5.495 C 241.600 5.113,240.340 4.800,238.800 4.800 C 237.260 4.800,236.000 4.477,236.000 4.081 C 236.000 3.686,233.390 3.106,230.200 2.792 C 227.010 2.479,223.991 1.893,223.492 1.490 C 222.993 1.086,215.613 0.638,207.092 0.492 C 198.571 0.347,195.650 0.368,200.600 0.539 M109.348 36.648 C 107.727 38.309,106.400 39.923,106.400 40.235 C 106.400 40.547,107.848 39.310,109.618 37.486 C 111.388 35.662,112.715 34.048,112.566 33.900 C 112.418 33.751,110.969 34.988,109.348 36.648 M286.600 274.999 C 284.730 275.160,283.200 275.631,283.200 276.046 C 283.200 276.461,282.802 276.800,282.315 276.800 C 281.828 276.800,279.951 277.970,278.143 279.400 L 274.856 282.000 285.628 282.400 L 296.400 282.800 296.122 284.800 C 295.630 288.335,294.628 288.800,287.502 288.800 C 283.567 288.800,280.800 289.130,280.800 289.600 C 280.800 290.092,284.747 290.400,291.040 290.400 C 297.938 290.400,301.593 290.713,302.240 291.360 C 302.987 292.107,303.200 292.107,303.200 291.360 C 303.200 290.771,304.456 290.400,306.454 290.400 C 309.460 290.400,309.665 290.263,309.153 288.600 C 306.153 278.875,298.082 274.008,286.600 274.999 M292.051 295.105 C 291.252 296.597,290.435 296.800,285.219 296.800 C 276.663 296.800,277.104 298.135,285.813 298.597 C 294.124 299.038,295.614 298.436,293.959 295.305 L 292.958 293.410 292.051 295.105 M307.728 296.405 C 306.172 297.543,306.171 300.058,307.727 300.576 C 308.237 300.746,308.901 299.760,309.203 298.385 C 309.871 295.343,309.628 295.016,307.728 296.405 M298.000 304.800 C 297.711 305.268,292.954 305.614,286.553 305.633 L 275.600 305.667 278.580 308.301 C 285.280 314.223,295.952 314.258,302.821 308.380 L 306.000 305.660 303.447 305.630 C 302.043 305.614,300.672 305.240,300.400 304.800 C 300.128 304.360,299.588 304.000,299.200 304.000 C 298.812 304.000,298.272 304.360,298.000 304.800 " stroke="none" fill="#952225" fill-rule="evenodd"></path><path id="path1" d="M189.198 1.313 C 188.698 1.815,186.513 2.415,184.344 2.645 C 179.394 3.171,172.455 4.469,168.800 5.554 C 158.485 8.616,152.295 10.686,151.640 11.295 C 151.222 11.683,150.419 12.000,149.855 12.000 C 146.665 12.000,124.346 24.476,119.400 29.024 C 118.410 29.934,117.600 30.256,117.600 29.739 C 117.600 29.223,117.327 28.800,116.994 28.800 C 115.977 28.800,106.400 37.697,106.400 38.642 C 106.400 39.127,107.840 38.119,109.600 36.400 C 113.731 32.366,113.771 33.206,109.650 37.453 C 107.798 39.362,106.352 40.308,106.142 39.750 C 105.741 38.686,105.498 38.932,100.184 45.783 C 97.832 48.816,96.921 50.656,97.260 51.694 C 97.599 52.733,97.523 52.884,97.017 52.181 C 96.447 51.391,95.946 51.534,94.786 52.816 C 93.486 54.252,93.468 54.401,94.645 53.949 C 96.529 53.226,96.412 53.663,92.866 60.637 C 88.707 68.813,87.702 71.287,85.645 78.400 C 84.691 81.700,83.594 85.480,83.208 86.800 C 82.822 88.120,82.293 91.360,82.033 94.000 C 81.772 96.640,81.165 102.111,80.682 106.158 C 79.067 119.709,81.095 120.552,83.188 107.200 C 84.743 97.285,90.169 78.575,92.109 76.440 C 92.489 76.022,92.800 75.261,92.800 74.750 C 92.800 73.714,101.931 57.259,103.205 56.000 C 103.427 55.780,104.672 54.160,105.970 52.400 C 109.000 48.294,119.511 37.696,123.400 34.825 L 126.400 32.610 126.418 36.105 C 126.462 44.879,133.132 52.420,144.538 56.588 C 150.536 58.781,247.142 58.746,253.200 56.549 C 264.179 52.568,270.165 46.053,271.547 36.582 L 272.103 32.765 274.398 34.399 C 288.109 44.161,303.312 66.083,309.150 84.510 C 310.386 88.410,311.681 92.320,312.028 93.200 C 312.816 95.196,315.016 107.594,315.719 114.000 L 316.246 118.800 316.981 115.600 C 318.767 107.832,314.806 79.604,311.143 74.000 C 310.856 73.560,310.365 72.120,310.052 70.800 C 306.982 57.847,288.715 35.217,272.800 24.651 C 266.009 20.142,250.623 12.000,248.893 12.000 C 248.390 12.000,247.353 11.649,246.589 11.221 C 245.299 10.497,237.501 7.887,230.000 5.669 C 225.731 4.407,218.952 3.145,213.800 2.653 C 211.490 2.432,209.600 1.946,209.600 1.573 C 209.600 0.487,190.267 0.241,189.198 1.313 M120.093 24.737 C 120.042 25.362,119.404 26.532,118.676 27.337 C 117.948 28.142,117.724 28.800,118.178 28.800 C 119.547 28.800,120.957 26.573,120.559 25.038 C 120.335 24.176,120.148 24.055,120.093 24.737 M278.400 26.311 C 278.400 26.703,279.720 28.053,281.332 29.311 C 286.084 33.019,296.522 43.880,299.367 48.075 C 300.815 50.211,302.305 51.968,302.679 51.979 C 304.653 52.039,292.453 37.142,286.537 32.267 C 284.489 30.580,281.984 28.390,280.971 27.400 C 278.974 25.450,278.400 25.207,278.400 26.311 M303.200 53.514 C 303.200 53.907,303.769 54.447,304.465 54.714 C 306.422 55.465,306.681 55.303,305.600 54.000 C 304.496 52.670,303.200 52.408,303.200 53.514 M309.600 119.535 C 309.600 120.703,313.177 128.000,313.750 128.000 C 314.107 128.000,314.400 128.375,314.400 128.833 C 314.400 130.674,317.500 133.079,318.646 132.128 C 319.252 131.625,319.984 131.451,320.274 131.740 C 320.563 132.030,320.800 131.805,320.800 131.240 C 320.800 130.607,320.186 130.374,319.200 130.632 C 318.056 130.931,317.600 130.656,317.600 129.669 C 317.600 128.909,316.254 126.693,314.609 124.744 C 310.764 120.189,309.600 118.979,309.600 119.535 M82.739 126.917 C 79.694 130.699,79.637 130.919,81.567 131.423 C 82.465 131.658,83.200 131.488,83.200 131.046 C 83.200 130.604,83.787 129.005,84.505 127.492 C 86.305 123.698,85.533 123.447,82.739 126.917 M286.000 274.353 C 284.999 274.754,286.797 274.994,290.800 274.994 C 294.803 274.994,296.601 274.754,295.600 274.353 C 294.720 274.001,292.560 273.712,290.800 273.712 C 289.040 273.712,286.880 274.001,286.000 274.353 M279.525 277.303 C 276.454 279.386,274.475 281.443,274.425 282.600 C 274.411 282.930,279.080 283.200,284.800 283.200 C 294.441 283.200,295.200 283.310,295.200 284.702 C 295.200 287.191,293.433 287.915,286.762 288.163 C 281.745 288.350,280.400 288.654,280.400 289.600 C 280.400 290.590,282.139 290.839,290.349 291.026 C 295.821 291.150,300.748 291.625,301.298 292.081 C 301.990 292.655,302.790 292.647,303.896 292.056 C 304.775 291.585,306.598 291.200,307.947 291.200 C 310.746 291.200,310.965 290.347,309.230 286.194 C 307.180 281.288,299.381 273.952,297.847 275.486 C 297.589 275.744,298.246 276.285,299.307 276.689 C 302.959 278.077,307.661 283.766,309.153 288.600 C 309.665 290.263,309.460 290.400,306.454 290.400 C 304.456 290.400,303.200 290.771,303.200 291.360 C 303.200 292.107,302.987 292.107,302.240 291.360 C 301.593 290.713,297.938 290.400,291.040 290.400 C 284.747 290.400,280.800 290.092,280.800 289.600 C 280.800 289.130,283.567 288.800,287.502 288.800 C 294.628 288.800,295.630 288.335,296.122 284.800 L 296.400 282.800 285.628 282.400 L 274.856 282.000 278.143 279.400 C 279.951 277.970,281.828 276.800,282.315 276.800 C 282.802 276.800,283.200 276.440,283.200 276.000 C 283.200 274.874,282.998 274.946,279.525 277.303 M291.672 293.743 C 290.556 295.339,289.504 295.656,284.194 296.000 C 275.012 296.594,274.501 299.200,283.567 299.200 C 288.884 299.200,289.725 299.398,290.233 300.771 C 291.134 303.208,296.309 299.047,295.521 296.520 C 294.283 292.549,293.102 291.698,291.672 293.743 M294.080 298.094 C 293.025 299.166,278.188 298.589,278.860 297.503 C 279.099 297.116,281.961 296.800,285.219 296.800 C 290.435 296.800,291.252 296.597,292.051 295.105 L 292.958 293.410 293.959 295.305 C 294.688 296.685,294.721 297.443,294.080 298.094 M307.000 295.587 C 304.356 297.914,304.355 297.928,306.516 300.963 L 308.232 303.373 309.316 300.794 C 311.751 295.003,310.601 292.417,307.000 295.587 M309.203 298.385 C 308.901 299.760,308.237 300.746,307.727 300.576 C 306.171 300.058,306.172 297.543,307.728 296.405 C 309.628 295.016,309.871 295.343,309.203 298.385 M297.702 303.699 C 296.704 304.398,294.517 304.861,292.580 304.785 C 290.721 304.712,285.826 304.685,281.702 304.726 L 274.205 304.800 275.388 306.600 C 281.229 315.487,299.209 315.555,305.837 306.717 C 307.269 304.808,307.266 304.800,305.015 304.800 C 303.773 304.800,302.011 304.278,301.099 303.640 C 299.646 302.622,299.229 302.629,297.702 303.699 M300.400 304.800 C 300.672 305.240,302.043 305.614,303.447 305.630 L 306.000 305.660 302.821 308.380 C 295.952 314.258,285.280 314.223,278.580 308.301 L 275.600 305.667 286.553 305.633 C 292.954 305.614,297.711 305.268,298.000 304.800 C 298.272 304.360,298.812 304.000,299.200 304.000 C 299.588 304.000,300.128 304.360,300.400 304.800 " stroke="none" fill="#df5744" fill-rule="evenodd"></path><path id="path2" d="M122.680 68.200 C 121.341 69.630,119.203 72.240,117.928 74.000 C 116.652 75.760,115.405 77.380,115.155 77.600 C 114.657 78.038,101.989 98.335,97.429 106.000 C 91.629 115.749,91.044 117.009,92.032 117.620 C 92.708 118.038,92.723 118.353,92.085 118.747 C 91.598 119.048,91.200 119.682,91.200 120.156 C 91.200 120.629,92.274 119.798,93.587 118.308 C 94.900 116.819,95.975 115.240,95.975 114.800 C 95.975 114.360,95.594 114.540,95.127 115.200 C 94.372 116.267,94.317 116.267,94.625 115.200 C 94.816 114.540,95.576 114.052,96.313 114.116 C 97.209 114.193,97.522 113.795,97.256 112.916 C 97.014 112.116,98.102 110.239,100.029 108.131 C 101.773 106.224,103.197 104.964,103.193 105.331 C 103.189 105.699,101.888 107.369,100.302 109.043 C 98.716 110.716,97.689 112.336,98.019 112.643 C 98.349 112.949,98.773 112.770,98.961 112.244 C 99.150 111.719,100.720 109.739,102.452 107.845 C 104.183 105.951,105.594 104.041,105.588 103.600 C 105.581 103.160,105.194 103.340,104.727 104.000 C 103.972 105.067,103.916 105.067,104.222 104.000 C 104.411 103.340,105.159 102.906,105.883 103.035 C 106.607 103.164,107.200 102.894,107.200 102.435 C 107.200 101.976,106.819 101.600,106.353 101.600 C 105.887 101.600,105.752 101.202,106.053 100.715 C 106.437 100.092,106.791 100.139,107.244 100.872 C 107.733 101.663,108.282 101.443,109.518 99.957 C 111.534 97.535,111.627 96.689,109.800 97.380 C 108.473 97.883,108.472 97.837,109.782 96.516 C 110.543 95.749,111.506 94.512,111.922 93.767 C 112.339 93.023,112.904 92.637,113.178 92.911 C 113.452 93.185,113.076 94.010,112.343 94.743 C 111.610 95.476,111.223 96.290,111.485 96.551 C 112.385 97.452,115.139 93.228,114.714 91.600 C 114.372 90.293,114.451 90.219,115.148 91.200 C 115.748 92.045,116.177 92.134,116.600 91.501 C 117.500 90.152,122.645 83.893,123.878 82.648 C 124.470 82.049,124.759 81.046,124.518 80.420 C 124.233 79.677,124.473 79.432,125.207 79.713 C 125.954 80.000,126.516 79.380,126.877 77.873 C 127.539 75.103,128.739 73.468,129.681 74.050 C 130.067 74.288,130.145 73.834,129.855 73.042 C 129.353 71.666,129.402 71.664,130.927 73.000 C 131.807 73.770,132.953 74.400,133.474 74.400 C 133.995 74.400,135.047 74.749,135.811 75.175 C 137.903 76.342,144.649 78.400,146.381 78.400 C 147.219 78.400,148.105 78.722,148.348 79.115 C 148.591 79.509,150.142 80.017,151.795 80.244 C 153.448 80.472,158.220 81.234,162.400 81.938 C 175.293 84.111,197.154 85.019,213.265 84.051 C 228.571 83.131,245.249 80.886,249.200 79.214 C 250.691 78.583,255.333 77.297,260.000 76.222 C 261.100 75.969,262.223 75.419,262.497 75.001 C 262.770 74.582,264.299 74.240,265.894 74.240 C 268.959 74.240,269.065 73.183,266.118 71.995 C 264.674 71.412,264.632 71.293,265.852 71.251 C 266.650 71.223,268.270 72.333,269.452 73.718 C 272.312 77.070,273.543 79.438,270.885 76.476 C 267.097 72.253,268.878 76.407,272.911 81.200 C 274.450 83.028,287.408 98.784,289.360 101.200 C 290.799 102.981,293.413 106.005,300.121 113.648 C 302.608 116.482,306.118 120.532,307.921 122.649 C 309.724 124.765,311.200 126.266,311.200 125.984 C 311.200 125.242,305.576 116.880,304.721 116.351 C 304.325 116.106,304.000 115.106,304.000 114.129 C 304.000 110.553,282.866 76.596,276.217 69.487 L 272.581 65.600 198.847 65.600 L 125.114 65.600 122.680 68.200 M140.733 74.113 C 141.536 74.805,137.880 74.294,136.800 73.563 C 135.924 72.970,136.247 72.896,138.000 73.288 C 139.320 73.584,140.550 73.954,140.733 74.113 M165.811 79.763 C 164.827 79.953,163.027 79.958,161.811 79.774 C 160.595 79.590,161.400 79.435,163.600 79.429 C 165.800 79.423,166.795 79.573,165.811 79.763 M237.011 79.763 C 236.027 79.953,234.227 79.958,233.011 79.774 C 231.795 79.590,232.600 79.435,234.800 79.429 C 237.000 79.423,237.995 79.573,237.011 79.763 M122.431 82.551 C 121.534 83.514,120.800 84.555,120.800 84.865 C 120.800 85.175,120.209 85.656,119.487 85.933 C 118.337 86.374,118.312 86.263,119.287 85.044 C 122.114 81.505,122.800 80.800,123.409 80.800 C 123.768 80.800,123.328 81.588,122.431 82.551 M175.800 81.373 C 174.590 81.556,172.610 81.556,171.400 81.373 C 170.190 81.190,171.180 81.040,173.600 81.040 C 176.020 81.040,177.010 81.190,175.800 81.373 M227.014 81.372 C 225.812 81.554,223.652 81.558,222.214 81.380 C 220.776 81.202,221.760 81.052,224.400 81.048 C 227.040 81.043,228.216 81.189,227.014 81.372 M188.211 82.163 C 187.227 82.353,185.427 82.358,184.211 82.174 C 182.995 81.990,183.800 81.835,186.000 81.829 C 188.200 81.823,189.195 81.973,188.211 82.163 M215.000 82.173 C 213.790 82.356,211.810 82.356,210.600 82.173 C 209.390 81.990,210.380 81.840,212.800 81.840 C 215.220 81.840,216.210 81.990,215.000 82.173 M285.948 93.519 C 285.559 93.908,280.831 88.654,280.813 87.812 C 280.806 87.488,282.031 88.567,283.536 90.209 C 285.041 91.851,286.126 93.341,285.948 93.519 M295.322 104.400 C 295.802 105.280,294.543 104.200,292.524 102.000 C 290.505 99.800,288.841 97.690,288.827 97.312 C 288.792 96.424,294.175 102.299,295.322 104.400 M303.200 114.014 C 303.200 114.809,298.429 109.386,298.413 108.572 C 298.406 108.227,299.480 109.174,300.800 110.678 C 302.120 112.181,303.200 113.682,303.200 114.014 M144.192 113.589 C 142.839 115.756,142.929 127.176,144.314 129.000 C 145.894 131.082,147.754 130.707,148.280 128.200 C 148.534 126.990,148.982 124.787,149.275 123.304 C 150.584 116.701,146.785 109.438,144.192 113.589 M249.000 114.166 C 246.719 119.077,248.321 130.379,251.300 130.394 C 252.829 130.401,253.600 127.317,253.600 121.200 C 253.600 112.519,251.358 109.089,249.000 114.166 M192.000 123.737 C 179.317 129.023,179.824 142.966,192.921 149.044 C 199.756 152.217,214.400 147.713,214.400 142.438 C 214.400 141.977,214.713 141.600,215.096 141.600 C 217.012 141.600,217.908 134.204,216.339 131.340 C 212.749 124.787,199.449 120.633,192.000 123.737 M197.600 165.902 C 197.600 179.504,197.509 179.678,191.169 178.319 C 186.765 177.374,180.784 173.952,176.032 169.659 C 174.510 168.283,172.770 167.347,172.167 167.579 C 171.563 167.810,170.919 168.000,170.735 168.000 C 169.261 168.000,171.074 170.801,174.200 173.354 C 190.410 186.588,204.071 186.573,220.230 173.304 C 224.313 169.950,224.691 169.082,222.703 167.628 C 221.631 166.844,220.970 167.121,218.903 169.215 C 214.897 173.274,207.408 177.643,204.135 177.831 L 201.200 178.000 200.979 166.200 C 200.770 155.061,200.669 154.400,199.179 154.400 C 197.680 154.400,197.600 154.985,197.600 165.902 M219.360 288.160 C 217.459 290.061,218.215 293.384,220.809 294.532 C 225.525 296.620,224.444 301.341,219.437 300.529 C 217.987 300.293,216.800 300.438,216.800 300.850 C 216.800 301.984,222.603 301.699,224.200 300.486 C 226.571 298.687,225.896 296.218,222.400 293.905 C 217.972 290.975,218.748 287.268,223.595 288.195 C 224.698 288.406,225.600 288.268,225.600 287.889 C 225.600 286.842,220.454 287.066,219.360 288.160 M241.309 287.823 C 241.061 288.224,240.636 290.138,240.364 292.076 C 239.591 297.589,238.413 299.966,236.175 300.528 C 232.449 301.463,231.572 300.038,231.852 293.507 C 232.143 286.724,231.128 286.670,230.356 293.428 C 229.607 299.987,230.395 301.600,234.349 301.600 C 238.714 301.600,240.364 299.606,241.457 293.008 C 242.308 287.872,242.263 286.280,241.309 287.823 M246.946 287.800 C 246.754 288.130,246.337 290.893,246.020 293.939 C 245.702 296.986,245.260 299.956,245.036 300.539 C 244.812 301.123,244.994 301.600,245.439 301.600 C 245.885 301.600,246.490 299.710,246.783 297.400 C 247.760 289.697,248.971 288.688,251.091 293.813 C 255.013 303.293,256.028 303.806,257.392 297.000 C 259.004 288.964,259.181 287.200,258.380 287.200 C 257.951 287.200,257.600 287.819,257.600 288.577 C 257.600 290.734,255.691 298.400,255.153 298.400 C 254.647 298.400,254.048 297.256,251.276 291.000 C 249.759 287.577,247.882 286.190,246.946 287.800 M264.518 287.995 C 266.813 288.921,267.427 290.072,266.539 291.783 C 265.533 293.725,264.873 301.600,265.717 301.600 C 266.093 301.600,266.400 300.885,266.400 300.011 C 266.400 298.098,267.957 291.269,268.770 289.618 C 269.090 288.968,270.217 288.194,271.276 287.898 C 272.460 287.566,271.201 287.348,268.000 287.330 C 264.301 287.310,263.296 287.502,264.518 287.995 M315.734 290.200 C 315.495 291.850,315.097 295.180,314.849 297.600 L 314.399 302.000 315.422 298.800 C 316.867 294.280,319.151 294.104,320.998 298.371 C 321.766 300.147,322.738 301.600,323.157 301.600 C 323.576 301.600,323.400 300.360,322.767 298.845 C 321.519 295.857,321.914 293.600,323.686 293.600 C 324.373 293.600,324.800 292.741,324.800 291.360 C 324.800 286.062,316.487 284.998,315.734 290.200 M329.346 291.000 C 329.094 293.090,328.671 296.420,328.405 298.400 C 327.926 301.963,327.933 301.976,329.032 299.600 C 330.350 296.749,331.473 287.200,330.490 287.200 C 330.112 287.200,329.598 288.910,329.346 291.000 M322.741 289.535 C 324.065 290.998,324.050 291.150,322.416 292.784 C 320.215 294.985,317.292 294.650,316.939 292.156 C 316.400 288.356,320.144 286.665,322.741 289.535 " stroke="none" fill="#1c1b19" fill-rule="evenodd"></path><path id="path3" d="M265.600 71.771 C 267.861 72.608,268.947 73.815,267.977 74.414 C 267.383 74.782,267.810 75.753,269.239 77.285 C 270.427 78.558,270.943 78.961,270.386 78.181 C 268.975 76.205,270.134 75.366,271.660 77.258 C 272.360 78.126,272.619 78.240,272.252 77.518 C 270.834 74.730,267.226 71.203,265.852 71.263 C 264.732 71.312,264.674 71.428,265.600 71.771 M128.600 73.976 C 127.830 75.035,127.194 76.553,127.188 77.350 C 127.177 78.592,127.055 78.628,126.335 77.600 C 125.689 76.677,125.621 76.844,126.040 78.321 C 126.475 79.855,126.333 80.145,125.333 79.762 C 124.425 79.413,124.217 79.634,124.574 80.566 C 124.985 81.636,125.380 81.487,126.945 79.667 C 127.978 78.467,128.611 77.141,128.352 76.722 C 128.093 76.303,128.358 76.059,128.941 76.180 C 129.523 76.301,129.955 75.798,129.899 75.063 C 129.830 74.146,130.207 73.879,131.099 74.213 C 132.228 74.635,132.255 74.521,131.302 73.350 C 129.981 71.726,130.288 71.655,128.600 73.976 M136.800 73.563 C 137.460 74.010,138.690 74.381,139.533 74.388 C 141.580 74.404,140.942 73.946,138.000 73.288 C 136.247 72.896,135.924 72.970,136.800 73.563 M249.200 79.200 C 248.615 80.146,249.398 80.146,251.600 79.200 C 253.143 78.537,253.137 78.510,251.447 78.456 C 250.483 78.425,249.472 78.760,249.200 79.200 M161.811 79.774 C 163.027 79.958,164.827 79.953,165.811 79.763 C 166.795 79.573,165.800 79.423,163.600 79.429 C 161.400 79.435,160.595 79.590,161.811 79.774 M233.011 79.774 C 234.227 79.958,236.027 79.953,237.011 79.763 C 237.995 79.573,237.000 79.423,234.800 79.429 C 232.600 79.435,231.795 79.590,233.011 79.774 M153.200 80.800 C 154.080 81.178,155.340 81.488,156.000 81.488 C 156.756 81.488,156.609 81.233,155.600 80.800 C 154.720 80.422,153.460 80.112,152.800 80.112 C 152.044 80.112,152.191 80.367,153.200 80.800 M242.400 80.837 C 241.524 81.430,241.847 81.504,243.600 81.112 C 246.542 80.454,247.180 79.996,245.133 80.012 C 244.290 80.019,243.060 80.390,242.400 80.837 M121.578 82.225 C 118.335 86.149,118.341 86.137,119.984 86.016 C 121.632 85.894,125.078 83.211,124.425 82.558 C 124.213 82.347,123.323 83.034,122.447 84.087 C 121.570 85.139,120.841 85.618,120.827 85.151 C 120.812 84.684,121.534 83.514,122.431 82.551 C 123.328 81.588,123.768 80.800,123.409 80.800 C 123.050 80.800,122.226 81.441,121.578 82.225 M171.400 81.373 C 172.610 81.556,174.590 81.556,175.800 81.373 C 177.010 81.190,176.020 81.040,173.600 81.040 C 171.180 81.040,170.190 81.190,171.400 81.373 M222.214 81.380 C 223.652 81.558,225.812 81.554,227.014 81.372 C 228.216 81.189,227.040 81.043,224.400 81.048 C 221.760 81.052,220.776 81.202,222.214 81.380 M184.211 82.174 C 185.427 82.358,187.227 82.353,188.211 82.163 C 189.195 81.973,188.200 81.823,186.000 81.829 C 183.800 81.835,182.995 81.990,184.211 82.174 M210.600 82.173 C 211.810 82.356,213.790 82.356,215.000 82.173 C 216.210 81.990,215.220 81.840,212.800 81.840 C 210.380 81.840,209.390 81.990,210.600 82.173 M232.000 82.400 L 228.400 82.960 231.600 83.000 C 233.360 83.022,235.700 82.752,236.800 82.400 C 239.327 81.591,237.204 81.591,232.000 82.400 M164.609 82.966 C 165.604 83.157,167.044 83.150,167.809 82.950 C 168.574 82.749,167.760 82.593,166.000 82.602 C 164.240 82.611,163.614 82.774,164.609 82.966 M183.600 84.901 C 186.680 85.176,193.520 85.401,198.800 85.401 C 204.080 85.401,210.920 85.176,214.000 84.901 C 217.080 84.625,210.240 84.400,198.800 84.400 C 187.360 84.400,180.520 84.625,183.600 84.901 M118.163 89.225 C 117.372 90.311,117.012 91.189,117.363 91.175 C 117.713 91.161,118.647 90.261,119.437 89.175 C 120.228 88.089,120.588 87.211,120.237 87.225 C 119.887 87.239,118.953 88.139,118.163 89.225 M280.813 87.812 C 280.831 88.654,285.559 93.908,285.948 93.519 C 286.126 93.341,285.041 91.851,283.536 90.209 C 282.031 88.567,280.806 87.488,280.813 87.812 M114.727 91.771 C 115.054 92.801,114.747 93.772,113.868 94.487 C 112.664 95.467,112.563 95.433,113.025 94.200 C 113.314 93.430,113.201 92.800,112.775 92.800 C 112.349 92.800,112.000 93.092,112.000 93.449 C 112.000 93.806,111.202 94.955,110.227 96.001 C 108.865 97.464,108.772 97.782,109.827 97.377 C 111.578 96.705,111.571 97.432,109.806 99.537 C 108.850 100.677,109.117 100.575,110.653 99.216 C 111.886 98.125,112.514 97.105,112.048 96.949 C 111.581 96.794,111.200 96.298,111.200 95.848 C 111.200 95.397,111.702 95.221,112.315 95.457 C 114.255 96.201,116.921 92.640,115.439 91.284 C 114.373 90.309,114.283 90.371,114.727 91.771 M285.566 97.400 C 287.052 99.270,288.412 100.800,288.588 100.800 C 289.154 100.800,285.725 96.298,284.269 95.129 C 283.496 94.508,284.080 95.530,285.566 97.400 M288.827 97.312 C 288.841 97.690,290.505 99.800,292.524 102.000 C 294.543 104.200,295.802 105.280,295.322 104.400 C 294.175 102.299,288.792 96.424,288.827 97.312 M105.995 100.808 C 105.726 101.244,105.887 101.600,106.353 101.600 C 106.819 101.600,107.200 101.976,107.200 102.435 C 107.200 102.894,106.570 103.164,105.800 103.035 C 104.932 102.889,104.396 103.310,104.390 104.144 C 104.384 104.882,104.114 105.752,103.790 106.077 C 103.465 106.401,103.200 106.216,103.200 105.665 C 103.200 105.114,101.773 106.224,100.029 108.131 C 97.849 110.515,97.000 112.069,97.314 113.100 C 97.621 114.107,97.468 114.413,96.848 114.030 C 95.474 113.180,88.498 120.662,85.987 125.679 L 83.824 130.000 86.730 127.225 C 88.329 125.699,89.482 124.046,89.293 123.553 C 89.103 123.059,89.309 122.148,89.749 121.527 C 90.357 120.673,90.425 120.783,90.031 121.981 C 89.569 123.387,89.737 123.350,91.552 121.645 C 92.675 120.590,93.396 119.529,93.153 119.287 C 92.911 119.044,92.378 119.376,91.969 120.023 C 91.559 120.670,91.219 120.794,91.212 120.298 C 91.197 119.155,93.192 117.459,93.817 118.083 C 94.075 118.341,95.367 117.348,96.687 115.876 C 98.008 114.404,98.754 113.080,98.344 112.933 C 97.935 112.787,97.600 112.298,97.600 111.848 C 97.600 111.397,98.102 111.221,98.715 111.457 C 99.328 111.692,100.651 111.010,101.654 109.942 C 102.675 108.855,103.044 108.000,102.492 108.000 C 101.950 108.000,101.718 107.656,101.978 107.235 C 102.238 106.814,102.890 106.608,103.426 106.777 C 105.133 107.316,108.801 102.180,107.546 101.008 C 106.878 100.384,106.303 100.310,105.995 100.808 M298.413 108.572 C 298.429 109.386,303.200 114.809,303.200 114.014 C 303.200 113.682,302.120 112.181,300.800 110.678 C 299.480 109.174,298.406 108.227,298.413 108.572 M143.984 113.000 C 143.244 114.527,143.270 114.607,144.156 113.530 C 144.730 112.831,145.740 112.050,146.400 111.793 C 147.373 111.415,147.340 111.314,146.228 111.263 C 145.474 111.228,144.464 112.010,143.984 113.000 M253.200 121.200 C 253.200 125.296,253.464 128.232,253.788 127.724 C 254.111 127.216,254.375 124.280,254.375 121.200 C 254.375 118.120,254.111 115.184,253.788 114.676 C 253.464 114.168,253.200 117.104,253.200 121.200 M304.000 114.448 C 304.000 114.914,305.260 116.946,306.800 118.963 C 309.981 123.129,310.474 124.985,307.800 122.730 C 306.140 121.330,306.149 121.380,307.916 123.381 C 308.970 124.574,310.201 125.323,310.652 125.044 C 311.121 124.754,311.286 125.023,311.036 125.673 C 310.797 126.297,311.151 127.323,311.824 127.951 C 312.909 128.965,312.982 128.829,312.464 126.747 C 312.144 125.456,311.548 124.280,311.141 124.133 C 310.733 123.987,310.400 123.531,310.400 123.121 C 310.400 122.342,304.787 113.600,304.287 113.600 C 304.129 113.600,304.000 113.982,304.000 114.448 M302.921 117.876 C 304.175 119.347,305.332 120.445,305.494 120.315 C 305.938 119.958,302.101 115.295,301.321 115.244 C 300.948 115.220,301.668 116.404,302.921 117.876 M142.602 121.200 C 142.611 122.960,142.774 123.586,142.966 122.591 C 143.157 121.596,143.150 120.156,142.950 119.391 C 142.749 118.626,142.593 119.440,142.602 121.200 M196.621 122.987 C 198.503 123.156,201.383 123.153,203.021 122.982 C 204.660 122.810,203.120 122.671,199.600 122.674 C 196.080 122.677,194.740 122.818,196.621 122.987 M198.200 150.965 C 199.190 151.155,200.810 151.155,201.800 150.965 C 202.790 150.774,201.980 150.618,200.000 150.618 C 198.020 150.618,197.210 150.774,198.200 150.965 M197.367 154.100 C 197.055 154.411,196.800 159.838,196.800 166.159 C 196.800 177.329,196.750 177.672,195.000 178.375 C 193.896 178.819,193.679 179.118,194.440 179.149 C 197.178 179.261,197.600 177.484,197.600 165.840 C 197.600 154.933,197.675 154.400,199.200 154.400 C 200.726 154.400,200.800 154.933,200.800 165.953 C 200.800 172.307,201.070 177.673,201.400 177.878 C 201.730 178.084,201.820 172.795,201.600 166.126 C 201.195 153.839,200.266 151.201,197.367 154.100 M219.374 174.200 C 217.461 176.070,217.429 176.162,219.161 174.812 C 222.576 172.152,222.739 172.000,222.173 172.000 C 221.872 172.000,220.612 172.990,219.374 174.200 M218.560 288.160 C 216.911 289.809,217.399 293.446,219.400 294.416 C 221.024 295.203,221.063 295.178,219.800 294.156 C 218.191 292.854,217.950 289.570,219.360 288.160 C 219.888 287.632,220.140 287.200,219.920 287.200 C 219.700 287.200,219.088 287.632,218.560 288.160 M225.600 287.808 C 225.600 288.142,224.475 288.412,223.099 288.408 C 220.294 288.399,218.241 290.561,219.684 292.004 C 220.282 292.602,220.513 292.313,220.466 291.026 C 220.410 289.474,220.812 289.194,223.148 289.157 C 224.659 289.134,226.039 288.684,226.214 288.157 C 226.390 287.631,226.323 287.200,226.067 287.200 C 225.810 287.200,225.600 287.473,225.600 287.808 M230.767 288.053 C 230.477 288.522,230.456 289.122,230.720 289.387 C 230.984 289.651,231.247 289.357,231.305 288.733 C 231.363 288.110,231.676 288.860,232.000 290.400 L 232.589 293.200 232.695 290.200 C 232.796 287.312,231.866 286.276,230.767 288.053 M258.947 288.306 C 258.646 289.090,258.423 290.331,258.451 291.065 C 258.484 291.949,258.762 291.748,259.274 290.469 C 259.698 289.406,259.921 288.164,259.770 287.709 C 259.618 287.254,259.248 287.522,258.947 288.306 M262.400 288.019 C 262.400 288.387,263.210 288.805,264.200 288.947 C 265.582 289.145,265.956 289.669,265.810 291.203 C 265.643 292.958,265.724 293.025,266.473 291.758 C 267.083 290.728,267.072 290.010,266.437 289.245 C 265.378 287.969,262.400 287.065,262.400 288.019 M271.600 287.779 C 269.544 288.284,267.993 289.550,268.024 290.698 C 268.038 291.194,268.416 290.970,268.864 290.200 C 269.313 289.430,270.360 288.800,271.193 288.800 C 272.025 288.800,272.928 288.440,273.200 288.000 C 273.472 287.560,273.583 287.242,273.447 287.293 C 273.311 287.344,272.480 287.563,271.600 287.779 M323.723 288.000 C 324.231 288.660,324.812 290.100,325.014 291.200 L 325.382 293.200 325.491 291.098 C 325.551 289.939,324.972 288.503,324.200 287.898 C 322.982 286.943,322.920 286.956,323.723 288.000 M330.844 290.044 C 330.543 291.650,330.457 293.123,330.652 293.319 C 330.848 293.515,331.254 292.361,331.556 290.756 C 331.857 289.150,331.943 287.677,331.748 287.481 C 331.552 287.285,331.146 288.439,330.844 290.044 M256.898 289.200 C 256.832 290.080,256.593 291.700,256.367 292.800 L 255.955 294.800 256.812 292.837 C 257.283 291.758,257.522 290.138,257.343 289.237 C 257.026 287.642,257.015 287.641,256.898 289.200 M317.637 289.156 C 315.733 291.450,316.922 294.013,319.829 293.879 C 322.166 293.771,322.401 293.949,321.946 295.479 C 321.442 297.177,321.451 297.178,322.649 295.605 C 323.317 294.728,323.553 293.818,323.174 293.584 C 322.791 293.348,322.804 292.641,323.202 291.997 C 324.836 289.353,319.664 286.713,317.637 289.156 M315.298 290.000 C 315.232 290.880,314.993 292.500,314.767 293.600 L 314.355 295.600 315.212 293.637 C 315.683 292.558,315.922 290.938,315.743 290.037 C 315.426 288.442,315.415 288.441,315.298 290.000 M322.330 289.915 C 323.044 290.776,322.962 291.323,321.970 292.315 C 320.382 293.904,317.600 294.000,317.600 292.465 C 317.600 289.038,320.365 287.548,322.330 289.915 M241.309 293.309 C 241.026 295.373,240.949 297.216,241.137 297.404 C 241.326 297.592,241.730 296.077,242.036 294.036 C 242.342 291.996,242.420 290.153,242.208 289.941 C 241.997 289.730,241.592 291.245,241.309 293.309 M328.480 292.880 C 328.187 294.713,328.103 296.370,328.294 296.561 C 328.485 296.752,328.893 295.419,329.200 293.600 C 329.507 291.781,329.591 290.124,329.386 289.919 C 329.181 289.714,328.773 291.047,328.480 292.880 M247.537 292.365 C 247.274 293.415,247.228 294.932,247.436 295.737 C 247.644 296.542,247.856 295.991,247.907 294.514 C 247.978 292.477,248.289 291.940,249.200 292.289 C 249.860 292.543,250.400 292.440,250.400 292.060 C 250.400 290.311,247.988 290.567,247.537 292.365 M229.272 295.330 C 228.979 297.161,229.035 298.955,229.396 299.316 C 229.758 299.678,230.131 298.179,230.227 295.987 C 230.438 291.132,229.992 290.825,229.272 295.330 M245.205 294.918 C 244.932 296.613,244.547 298.788,244.351 299.751 C 244.155 300.714,244.411 301.760,244.921 302.075 C 245.430 302.390,245.649 302.322,245.407 301.924 C 245.164 301.526,245.278 299.239,245.660 296.843 C 246.041 294.447,246.207 292.340,246.028 292.161 C 245.849 291.983,245.479 293.223,245.205 294.918 M239.309 294.135 C 239.249 295.089,238.993 296.529,238.740 297.335 C 238.304 298.722,238.328 298.724,239.192 297.377 C 239.694 296.594,239.951 295.154,239.762 294.177 C 239.418 292.402,239.418 292.402,239.309 294.135 M252.825 294.849 C 252.866 296.059,255.138 298.729,255.672 298.194 C 255.941 297.926,255.405 296.894,254.480 295.902 C 253.556 294.910,252.811 294.436,252.825 294.849 M266.756 297.156 C 266.454 298.761,266.388 300.255,266.608 300.475 C 266.828 300.695,267.254 299.561,267.556 297.956 C 267.857 296.350,267.923 294.857,267.703 294.637 C 267.483 294.417,267.057 295.550,266.756 297.156 M222.545 296.735 C 223.305 297.951,223.274 298.574,222.396 299.735 C 221.356 301.110,221.376 301.120,222.726 299.889 C 224.187 298.558,223.910 295.200,222.339 295.200 C 221.925 295.200,222.018 295.891,222.545 296.735 M257.124 298.293 C 256.522 302.061,254.781 302.707,253.600 299.600 C 252.697 297.226,251.974 296.929,252.561 299.174 C 253.101 301.238,254.901 302.686,256.274 302.159 C 257.309 301.762,258.747 296.081,258.002 295.335 C 257.810 295.143,257.415 296.474,257.124 298.293 M315.980 297.252 C 315.551 298.381,315.164 299.911,315.120 300.652 C 315.070 301.507,314.791 301.268,314.359 300.000 L 313.678 298.000 313.839 300.000 C 314.075 302.933,315.374 302.167,316.473 298.446 C 317.535 294.848,317.202 294.039,315.980 297.252 M264.680 298.400 C 264.614 299.280,264.524 300.420,264.480 300.933 C 264.436 301.447,264.859 301.960,265.420 302.073 C 265.981 302.187,266.085 302.102,265.651 301.884 C 265.217 301.666,265.073 300.433,265.331 299.144 C 265.589 297.855,265.575 296.800,265.300 296.800 C 265.025 296.800,264.746 297.520,264.680 298.400 M320.561 299.174 C 320.788 300.039,321.464 301.156,322.065 301.654 C 322.891 302.339,322.855 301.955,321.920 300.080 C 320.506 297.245,319.962 296.882,320.561 299.174 M329.109 299.676 C 328.600 301.704,328.476 301.777,327.927 300.371 C 327.424 299.086,327.302 299.046,327.256 300.153 C 327.160 302.476,328.763 302.601,329.624 300.337 C 330.075 299.150,330.272 298.006,330.061 297.795 C 329.850 297.584,329.422 298.431,329.109 299.676 M238.986 300.000 C 238.113 301.020,236.524 301.640,234.608 301.709 C 232.594 301.782,232.222 301.936,233.481 302.175 C 236.286 302.708,239.045 301.784,240.005 299.991 C 241.090 297.964,240.726 297.967,238.986 300.000 M215.634 299.945 C 215.381 300.354,215.540 300.916,215.987 301.192 C 216.434 301.468,216.800 301.275,216.800 300.762 C 216.800 300.247,217.357 300.043,218.042 300.305 C 218.753 300.578,219.075 300.444,218.794 299.991 C 218.177 298.991,216.241 298.963,215.634 299.945 M223.560 300.743 C 223.142 301.152,221.540 301.634,220.000 301.815 L 217.200 302.144 220.047 302.272 C 221.613 302.342,223.593 301.871,224.447 301.225 C 225.301 300.579,225.622 300.039,225.160 300.025 C 224.698 300.011,223.978 300.334,223.560 300.743 " stroke="none" fill="#4d4b49" fill-rule="evenodd"></path><path id="path4" d="M174.209 84.566 C 175.204 84.757,176.644 84.750,177.409 84.550 C 178.174 84.349,177.360 84.193,175.600 84.202 C 173.840 84.211,173.214 84.374,174.209 84.566 M220.600 84.565 C 221.590 84.755,223.210 84.755,224.200 84.565 C 225.190 84.374,224.380 84.218,222.400 84.218 C 220.420 84.218,219.610 84.374,220.600 84.565 M183.809 85.366 C 184.804 85.557,186.244 85.550,187.009 85.350 C 187.774 85.149,186.960 84.993,185.200 85.002 C 183.440 85.011,182.814 85.174,183.809 85.366 M211.000 85.365 C 211.990 85.555,213.610 85.555,214.600 85.365 C 215.590 85.174,214.780 85.018,212.800 85.018 C 210.820 85.018,210.010 85.174,211.000 85.365 M247.448 121.200 C 247.452 123.840,247.602 124.824,247.780 123.386 C 247.958 121.948,247.954 119.788,247.772 118.586 C 247.589 117.384,247.443 118.560,247.448 121.200 M196.351 154.639 C 196.132 155.210,196.055 160.700,196.180 166.839 L 196.407 178.000 196.803 165.799 C 197.194 153.793,197.144 152.572,196.351 154.639 M218.357 168.600 L 215.600 171.600 218.600 168.843 C 220.250 167.327,221.600 165.977,221.600 165.843 C 221.600 165.232,220.923 165.808,218.357 168.600 M194.182 183.777 C 195.602 183.954,198.122 183.957,199.782 183.784 C 201.442 183.611,200.280 183.466,197.200 183.463 C 194.120 183.459,192.762 183.601,194.182 183.777 M262.133 286.933 C 261.840 287.227,261.606 287.857,261.612 288.333 C 261.620 288.879,261.850 288.846,262.233 288.243 C 262.568 287.716,265.172 287.156,268.021 286.997 L 273.200 286.708 267.933 286.554 C 265.037 286.469,262.427 286.640,262.133 286.933 M315.733 286.933 C 315.440 287.227,315.206 287.857,315.212 288.333 C 315.220 288.897,315.433 288.873,315.819 288.265 C 316.146 287.751,317.671 287.178,319.207 286.993 L 322.000 286.656 319.133 286.528 C 317.557 286.458,316.027 286.640,315.733 286.933 " stroke="none" fill="#6f6e6b" fill-rule="evenodd"></path><path id="path5" d="M126.283 81.000 C 124.824 82.870,124.271 83.892,125.053 83.271 C 126.605 82.038,129.946 77.600,129.322 77.600 C 129.109 77.600,127.741 79.130,126.283 81.000 M140.000 78.400 C 140.660 78.827,141.740 79.175,142.400 79.175 C 143.467 79.175,143.467 79.089,142.400 78.400 C 141.740 77.973,140.660 77.625,140.000 77.625 C 138.933 77.625,138.933 77.711,140.000 78.400 M155.600 82.400 C 158.984 83.261,161.889 83.261,159.200 82.400 C 158.100 82.048,156.300 81.766,155.200 81.774 C 153.404 81.788,153.444 81.851,155.600 82.400 M238.400 82.400 C 235.711 83.261,238.616 83.261,242.000 82.400 C 244.156 81.851,244.196 81.788,242.400 81.774 C 241.300 81.766,239.500 82.048,238.400 82.400 M166.000 83.994 C 167.528 84.657,173.427 85.111,172.733 84.513 C 172.550 84.355,170.600 84.017,168.400 83.763 C 165.827 83.466,164.971 83.548,166.000 83.994 M228.000 84.000 C 225.266 84.575,225.256 84.591,227.600 84.638 C 228.920 84.665,230.720 84.378,231.600 84.000 C 233.524 83.173,231.927 83.173,228.000 84.000 M121.600 86.800 C 120.567 87.900,120.054 88.789,120.461 88.775 C 121.145 88.752,124.441 84.800,123.777 84.800 C 123.613 84.800,122.633 85.700,121.600 86.800 M178.600 85.351 C 179.370 85.553,180.630 85.553,181.400 85.351 C 182.170 85.150,181.540 84.986,180.000 84.986 C 178.460 84.986,177.830 85.150,178.600 85.351 M217.000 85.351 C 217.770 85.553,219.030 85.553,219.800 85.351 C 220.570 85.150,219.940 84.986,218.400 84.986 C 216.860 84.986,216.230 85.150,217.000 85.351 M191.043 86.197 C 195.576 86.340,202.776 86.339,207.043 86.196 C 211.309 86.052,207.600 85.935,198.800 85.936 C 190.000 85.937,186.509 86.054,191.043 86.197 M109.208 101.592 C 107.948 102.907,107.070 104.111,107.258 104.267 C 107.446 104.423,108.625 103.347,109.879 101.876 C 112.709 98.553,112.289 98.376,109.208 101.592 M104.000 107.600 C 102.967 108.700,102.454 109.589,102.861 109.575 C 103.545 109.552,106.841 105.600,106.177 105.600 C 106.013 105.600,105.033 106.500,104.000 107.600 M94.400 118.800 C 93.367 119.900,92.854 120.789,93.261 120.775 C 93.945 120.752,97.241 116.800,96.577 116.800 C 96.413 116.800,95.433 117.700,94.400 118.800 M149.848 121.200 C 149.852 123.840,150.002 124.824,150.180 123.386 C 150.358 121.948,150.354 119.788,150.172 118.586 C 149.989 117.384,149.843 118.560,149.848 121.200 M254.648 121.200 C 254.652 123.840,254.802 124.824,254.980 123.386 C 255.158 121.948,255.154 119.788,254.972 118.586 C 254.789 117.384,254.643 118.560,254.648 121.200 M141.829 121.200 C 141.835 123.400,141.990 124.205,142.174 122.989 C 142.358 121.773,142.353 119.973,142.163 118.989 C 141.973 118.005,141.823 119.000,141.829 121.200 M246.586 120.800 C 246.586 122.340,246.750 122.970,246.951 122.200 C 247.153 121.430,247.153 120.170,246.951 119.400 C 246.750 118.630,246.586 119.260,246.586 120.800 M84.350 130.600 L 82.000 133.200 84.600 130.850 C 87.024 128.660,87.568 128.000,86.950 128.000 C 86.812 128.000,85.642 129.170,84.350 130.600 M217.818 135.200 C 217.818 137.180,217.974 137.990,218.165 137.000 C 218.355 136.010,218.355 134.390,218.165 133.400 C 217.974 132.410,217.818 133.220,217.818 135.200 M201.966 165.190 C 201.994 175.259,202.192 177.194,203.200 177.267 C 203.860 177.315,203.959 177.205,203.421 177.022 C 202.725 176.787,202.368 173.300,202.187 164.945 L 201.931 153.200 201.966 165.190 M168.800 169.310 C 168.800 169.737,170.150 171.327,171.800 172.843 L 174.800 175.600 172.000 172.409 C 170.460 170.654,169.110 169.064,169.000 168.875 C 168.890 168.687,168.800 168.883,168.800 169.310 M222.450 172.339 L 219.701 175.600 222.810 172.627 C 224.521 170.991,225.758 169.524,225.560 169.365 C 225.362 169.207,223.963 170.545,222.450 172.339 M285.876 273.412 C 285.368 273.736,287.584 274.000,290.800 274.000 C 294.016 274.000,296.232 273.736,295.724 273.412 C 295.216 273.089,293.000 272.825,290.800 272.825 C 288.600 272.825,286.384 273.089,285.876 273.412 M300.118 276.012 C 301.723 276.860,304.333 279.069,305.918 280.921 C 307.503 282.773,308.800 284.044,308.800 283.746 C 308.800 281.775,300.019 274.315,297.840 274.435 C 297.488 274.455,298.513 275.164,300.118 276.012 M285.000 287.783 C 286.650 287.955,289.350 287.955,291.000 287.783 C 292.650 287.610,291.300 287.469,288.000 287.469 C 284.700 287.469,283.350 287.610,285.000 287.783 M291.467 292.387 C 291.467 293.342,291.715 293.386,292.733 292.614 C 293.430 292.085,294.150 291.551,294.333 291.426 C 294.517 291.302,293.947 291.200,293.067 291.200 C 292.185 291.200,291.467 291.733,291.467 292.387 M294.890 295.047 C 296.080 297.518,296.066 297.809,294.682 299.447 L 293.200 301.200 295.000 299.676 C 297.214 297.801,297.256 296.719,295.208 294.289 L 293.617 292.400 294.890 295.047 M280.000 299.691 C 284.775 300.292,290.220 300.352,289.878 299.800 C 289.673 299.470,286.917 299.254,283.753 299.320 C 280.589 299.386,278.900 299.553,280.000 299.691 M309.196 301.612 C 308.915 302.498,308.295 302.982,307.819 302.688 C 307.267 302.347,307.187 302.532,307.599 303.198 C 308.242 304.239,310.400 302.275,310.400 300.647 C 310.400 299.440,309.710 299.993,309.196 301.612 M273.948 304.885 C 273.647 305.372,274.607 306.902,276.082 308.285 L 278.764 310.800 276.582 308.356 C 273.530 304.937,273.586 304.893,281.400 304.596 L 288.400 304.329 281.447 304.165 C 277.060 304.061,274.293 304.326,273.948 304.885 M304.615 304.580 C 306.243 304.781,307.027 305.233,306.692 305.775 C 306.367 306.301,306.524 306.418,307.089 306.068 C 308.675 305.089,307.242 303.993,304.553 304.128 L 302.000 304.256 304.615 304.580 M283.600 313.229 C 284.920 313.833,286.720 314.320,287.600 314.310 C 288.480 314.301,287.580 313.783,285.600 313.159 C 281.158 311.759,280.445 311.784,283.600 313.229 M295.600 313.230 C 292.423 314.329,292.420 314.334,295.200 313.884 C 296.740 313.635,298.342 313.109,298.760 312.716 C 299.694 311.836,299.573 311.855,295.600 313.230 " stroke="none" fill="#969492" fill-rule="evenodd"></path><path id="path6" d="M101.206 27.821 C 94.568 31.293,92.794 37.222,96.318 44.167 L 98.229 47.933 100.347 44.877 C 102.967 41.096,115.476 28.800,116.702 28.800 C 117.196 28.800,117.600 28.368,117.600 27.840 C 117.600 27.093,117.387 27.093,116.640 27.840 C 115.364 29.116,113.686 29.044,110.909 27.595 C 108.049 26.104,104.325 26.190,101.206 27.821 M282.000 28.128 C 285.957 31.123,299.078 44.561,300.795 47.378 C 301.898 49.186,302.395 49.554,302.397 48.561 C 302.399 47.770,303.120 45.632,304.000 43.811 C 307.111 37.373,303.956 28.000,298.678 28.000 C 298.085 28.000,297.600 27.640,297.600 27.200 C 297.600 25.765,291.429 26.358,288.151 28.108 L 284.951 29.816 282.275 28.064 L 279.600 26.312 282.000 28.128 M95.198 51.400 C 94.020 53.009,93.827 53.568,94.691 52.866 C 96.003 51.800,97.986 48.800,97.379 48.800 C 97.226 48.800,96.244 49.970,95.198 51.400 M302.818 51.358 C 303.232 52.438,306.366 54.734,306.772 54.255 C 306.892 54.115,305.958 53.164,304.697 52.141 C 303.437 51.119,302.591 50.767,302.818 51.358 M129.546 77.675 C 128.636 78.954,128.160 80.000,128.490 80.000 C 128.819 80.000,127.943 81.022,126.544 82.271 C 125.145 83.521,124.000 84.778,124.000 85.065 C 124.000 85.788,120.849 89.527,118.200 91.946 C 116.990 93.052,116.000 94.408,116.000 94.960 C 116.000 95.512,115.100 96.553,114.000 97.274 C 112.900 97.994,112.000 99.041,112.000 99.600 C 112.000 100.159,111.100 101.206,110.000 101.926 C 108.900 102.647,108.000 103.727,108.000 104.326 C 108.000 104.926,107.100 106.006,106.000 106.726 C 104.900 107.447,104.000 108.590,104.000 109.266 C 104.000 109.941,103.640 110.272,103.200 110.000 C 102.760 109.728,102.400 109.851,102.400 110.273 C 102.400 110.695,101.152 112.288,99.627 113.813 C 98.101 115.339,97.052 116.785,97.295 117.029 C 97.538 117.272,96.986 117.872,96.069 118.363 C 95.151 118.854,94.400 119.805,94.400 120.475 C 94.400 121.146,94.040 121.472,93.600 121.200 C 93.160 120.928,92.800 121.100,92.800 121.581 C 92.800 122.500,90.982 124.738,86.549 129.275 C 85.091 130.768,84.495 131.760,85.226 131.479 C 86.406 131.027,86.502 131.541,86.090 136.085 C 82.769 172.677,82.392 183.200,84.398 183.200 C 85.114 183.200,85.671 181.864,85.984 179.400 C 86.249 177.310,86.782 174.340,87.167 172.800 C 90.141 160.920,92.142 154.123,92.925 153.240 C 93.296 152.822,93.600 151.844,93.600 151.067 C 93.600 149.785,95.086 145.794,96.898 142.211 C 97.284 141.447,97.600 140.277,97.600 139.611 C 97.600 138.945,97.960 138.400,98.400 138.400 C 98.840 138.400,99.200 138.001,99.200 137.514 C 99.200 136.654,103.176 127.623,104.974 124.400 C 105.465 123.520,106.999 120.640,108.383 118.000 C 109.767 115.360,111.867 111.677,113.049 109.816 C 114.232 107.955,115.200 106.095,115.200 105.683 C 115.200 105.270,115.488 104.813,115.841 104.667 C 116.193 104.520,118.229 101.579,120.366 98.132 C 122.502 94.684,124.649 91.444,125.136 90.932 C 125.622 90.419,126.707 88.929,127.546 87.621 C 129.260 84.948,129.682 84.409,132.819 80.892 C 134.042 79.521,135.438 78.400,135.921 78.400 C 137.848 78.400,136.637 77.018,134.001 76.209 C 131.383 75.406,131.095 75.501,129.546 77.675 M264.400 76.000 C 264.128 76.440,263.207 76.800,262.353 76.800 C 261.499 76.800,260.800 77.160,260.800 77.600 C 260.800 78.040,261.544 78.400,262.453 78.400 C 264.691 78.400,267.354 76.897,266.775 75.960 C 266.164 74.971,265.024 74.990,264.400 76.000 M137.603 78.514 C 137.606 79.551,143.329 82.400,145.408 82.400 C 145.954 82.400,146.400 82.713,146.400 83.095 C 146.400 83.478,147.570 84.013,149.000 84.285 C 150.430 84.557,153.580 85.365,156.000 86.080 C 169.338 90.020,193.414 91.553,210.800 89.569 C 214.320 89.167,219.180 88.625,221.600 88.364 C 224.020 88.103,226.720 87.582,227.600 87.206 C 228.480 86.830,230.640 86.316,232.400 86.063 C 239.608 85.029,245.549 83.552,245.528 82.800 C 245.506 81.971,244.732 81.991,240.000 82.945 C 238.460 83.255,236.221 83.492,235.025 83.470 C 233.828 83.449,233.016 83.702,233.219 84.031 C 233.423 84.361,232.782 84.618,231.795 84.603 C 226.866 84.530,220.899 85.112,221.222 85.635 C 221.724 86.449,176.597 86.388,175.589 85.573 C 175.143 85.213,172.533 84.806,169.789 84.671 C 167.045 84.535,164.800 84.238,164.800 84.012 C 164.800 83.785,163.810 83.579,162.600 83.553 C 161.390 83.526,158.960 83.211,157.200 82.852 C 155.440 82.493,153.370 82.167,152.600 82.128 C 151.830 82.089,151.200 81.853,151.200 81.603 C 151.200 81.353,150.246 81.070,149.081 80.974 C 147.915 80.877,146.406 80.349,145.727 79.799 C 144.700 78.968,144.612 79.001,145.200 80.000 C 145.764 80.957,145.674 81.021,144.754 80.316 C 144.119 79.829,142.880 79.240,142.000 79.006 C 141.120 78.773,139.770 78.322,139.000 78.005 C 138.071 77.623,137.601 77.794,137.603 78.514 M257.558 78.377 C 256.874 78.776,255.434 79.224,254.358 79.372 C 253.281 79.520,251.982 79.903,251.471 80.223 C 250.961 80.544,249.637 80.881,248.529 80.973 C 247.422 81.064,246.712 81.458,246.952 81.847 C 247.193 82.236,248.337 82.348,249.495 82.097 C 250.653 81.846,253.674 81.193,256.209 80.646 C 258.744 80.100,260.701 79.303,260.559 78.876 C 260.182 77.747,258.979 77.547,257.558 78.377 M196.400 121.200 C 198.322 121.857,205.650 122.124,204.668 121.501 C 204.080 121.129,201.800 120.847,199.600 120.875 C 197.400 120.903,195.960 121.049,196.400 121.200 M313.264 131.304 C 314.136 132.715,317.713 133.702,318.771 132.824 C 319.308 132.378,320.042 132.281,320.402 132.607 C 320.762 132.933,320.787 132.733,320.457 132.161 C 320.003 131.375,319.590 131.344,318.758 132.035 C 317.925 132.726,317.068 132.652,315.216 131.728 C 313.872 131.058,312.994 130.867,313.264 131.304 M197.141 151.933 C 196.294 152.762,196.980 153.200,199.124 153.200 C 200.402 153.200,201.297 152.957,201.114 152.661 C 200.930 152.364,201.415 151.966,202.190 151.775 C 202.966 151.585,202.224 151.468,200.541 151.515 C 198.859 151.562,197.329 151.750,197.141 151.933 M195.520 166.000 C 195.521 172.600,195.645 175.194,195.795 171.763 C 195.946 168.333,195.945 162.933,195.793 159.763 C 195.642 156.594,195.519 159.400,195.520 166.000 M202.718 165.600 C 202.718 171.980,202.842 174.590,202.994 171.400 C 203.146 168.210,203.146 162.990,202.994 159.800 C 202.842 156.610,202.718 159.220,202.718 165.600 M283.887 283.799 C 294.070 284.036,294.555 284.122,294.162 285.625 C 293.935 286.492,294.076 287.000,294.475 286.754 C 294.874 286.507,295.200 285.607,295.200 284.753 C 295.200 283.283,294.615 283.209,284.200 283.375 L 273.200 283.549 283.887 283.799 M279.709 291.176 C 279.942 291.409,282.784 291.780,286.026 292.000 C 289.268 292.220,291.669 292.166,291.360 291.881 C 290.693 291.263,279.095 290.562,279.709 291.176 M294.103 291.833 C 293.888 292.181,295.037 292.335,296.656 292.175 C 301.083 291.738,301.611 291.334,297.847 291.263 C 296.003 291.228,294.318 291.485,294.103 291.833 M303.200 292.484 C 301.918 293.270,301.774 293.503,302.800 293.133 C 303.680 292.816,305.660 292.390,307.200 292.186 L 310.000 291.816 307.600 294.440 L 305.200 297.063 308.149 294.772 C 312.524 291.373,308.240 289.392,303.200 292.484 M280.621 295.787 C 282.503 295.956,285.383 295.953,287.021 295.782 C 288.660 295.610,287.120 295.471,283.600 295.474 C 280.080 295.477,278.740 295.618,280.621 295.787 M276.824 298.514 C 276.791 300.308,278.437 300.800,284.465 300.800 C 288.496 300.800,289.600 301.058,289.600 302.000 C 289.600 302.987,288.178 303.200,281.600 303.200 C 277.200 303.200,273.603 303.470,273.606 303.800 C 273.609 304.130,278.739 304.412,285.006 304.426 C 291.273 304.441,295.212 304.327,293.760 304.173 C 291.840 303.969,290.918 303.361,290.380 301.946 C 289.693 300.141,289.234 300.000,284.060 300.000 C 279.589 300.000,278.317 299.722,277.664 298.600 C 276.941 297.358,276.846 297.348,276.824 298.514 M297.924 302.524 C 297.562 303.108,297.705 303.230,298.311 302.855 C 298.839 302.529,299.704 302.613,300.235 303.041 C 301.435 304.010,308.000 304.669,308.000 303.821 C 308.000 303.480,306.380 303.200,304.400 303.200 C 302.420 303.200,300.800 302.840,300.800 302.400 C 300.800 301.297,298.624 301.391,297.924 302.524 M138.939 373.714 C 138.172 382.096,138.947 439.267,139.840 440.160 C 140.535 440.855,206.657 442.241,245.007 442.365 L 256.014 442.400 255.983 406.400 L 255.952 370.400 251.376 370.333 C 248.859 370.297,245.900 370.167,244.800 370.045 C 243.700 369.922,219.536 369.554,191.102 369.225 L 139.405 368.628 138.939 373.714 " stroke="none" fill="#e2b059" fill-rule="evenodd"></path><path id="path7" d="M100.000 17.600 C 100.000 18.040,99.100 18.400,98.000 18.400 C 96.900 18.400,96.000 18.760,96.000 19.200 C 96.000 19.640,95.486 20.000,94.857 20.000 C 93.256 20.000,86.400 26.732,86.400 28.304 C 86.400 29.017,86.040 29.600,85.600 29.600 C 85.133 29.600,84.800 32.267,84.800 36.000 C 84.800 39.733,85.133 42.400,85.600 42.400 C 86.040 42.400,86.400 43.120,86.400 44.000 C 86.400 44.880,86.721 45.600,87.113 45.600 C 87.506 45.600,88.052 46.500,88.329 47.600 C 88.605 48.700,89.184 49.600,89.615 49.600 C 90.047 49.600,90.400 49.986,90.400 50.457 C 90.400 53.519,93.043 53.919,95.313 51.200 C 98.022 47.955,98.118 46.859,95.997 43.381 C 93.393 39.110,94.157 33.961,97.990 29.952 C 100.632 27.188,108.806 25.267,109.962 27.138 C 111.538 29.688,120.000 27.701,120.000 24.782 C 120.000 23.629,116.027 20.000,114.764 20.000 C 114.124 20.000,113.600 19.640,113.600 19.200 C 113.600 18.760,112.721 18.400,111.647 18.400 C 110.573 18.400,109.472 18.040,109.200 17.600 C 108.928 17.160,106.747 16.800,104.353 16.800 C 101.959 16.800,100.000 17.160,100.000 17.600 M290.800 17.600 C 290.528 18.040,289.752 18.400,289.076 18.400 C 288.400 18.400,286.801 19.145,285.523 20.054 C 284.246 20.964,283.200 21.449,283.200 21.132 C 283.200 20.815,282.480 21.385,281.600 22.400 C 279.415 24.919,279.582 25.993,282.475 28.054 L 284.951 29.816 288.151 28.108 C 291.429 26.358,297.600 25.765,297.600 27.200 C 297.600 27.640,298.085 28.000,298.678 28.000 C 303.956 28.000,307.111 37.373,304.000 43.811 C 301.711 48.550,303.134 53.600,306.758 53.600 C 307.713 53.600,311.126 49.467,311.713 47.600 C 311.989 46.720,312.437 45.820,312.708 45.600 C 314.996 43.741,316.491 29.600,314.400 29.600 C 313.960 29.600,313.600 28.998,313.600 28.263 C 313.600 26.636,306.842 20.000,305.186 20.000 C 304.534 20.000,304.000 19.640,304.000 19.200 C 304.000 18.760,303.100 18.400,302.000 18.400 C 300.900 18.400,300.000 18.040,300.000 17.600 C 300.000 17.160,298.041 16.800,295.647 16.800 C 293.253 16.800,291.072 17.160,290.800 17.600 M265.600 77.600 C 264.940 78.027,263.590 78.381,262.600 78.388 C 261.610 78.394,260.800 78.683,260.800 79.028 C 260.800 79.373,258.910 80.064,256.600 80.563 C 254.290 81.062,251.320 81.706,250.000 81.995 C 248.680 82.284,246.880 82.822,246.000 83.190 C 244.209 83.938,236.281 85.615,232.000 86.149 C 230.460 86.342,228.480 86.812,227.600 87.194 C 226.720 87.576,224.020 88.103,221.600 88.364 C 219.180 88.625,214.320 89.167,210.800 89.569 C 193.414 91.553,169.338 90.020,156.000 86.080 C 153.580 85.365,150.430 84.557,149.000 84.285 C 147.570 84.013,146.400 83.478,146.400 83.095 C 146.400 82.713,145.872 82.400,145.227 82.400 C 143.781 82.400,138.099 79.822,137.733 79.000 C 137.138 77.660,134.909 78.549,132.718 81.000 C 129.632 84.454,129.325 84.846,127.546 87.621 C 126.707 88.929,125.622 90.419,125.136 90.932 C 124.649 91.444,122.502 94.684,120.366 98.132 C 118.229 101.579,116.193 104.520,115.841 104.667 C 115.488 104.813,115.200 105.270,115.200 105.683 C 115.200 106.095,114.232 107.955,113.049 109.816 C 111.867 111.677,109.767 115.360,108.383 118.000 C 106.999 120.640,105.465 123.520,104.974 124.400 C 103.176 127.623,99.200 136.654,99.200 137.514 C 99.200 138.001,98.840 138.400,98.400 138.400 C 97.960 138.400,97.600 138.945,97.600 139.611 C 97.600 140.277,97.284 141.447,96.898 142.211 C 95.086 145.794,93.600 149.785,93.600 151.067 C 93.600 151.844,93.296 152.822,92.925 153.240 C 92.293 153.953,90.578 159.466,88.708 166.800 C 88.259 168.560,87.588 171.080,87.217 172.400 C 84.531 181.961,85.270 184.624,91.112 186.417 C 92.260 186.769,101.120 189.820,110.800 193.197 C 120.480 196.573,130.920 200.185,134.000 201.223 C 137.080 202.261,148.600 206.227,159.600 210.036 C 170.600 213.845,180.680 217.286,182.000 217.683 C 185.596 218.766,185.948 219.115,189.894 225.515 C 198.154 238.912,199.436 238.911,207.523 225.497 C 209.969 221.439,211.940 219.104,213.401 218.531 C 214.611 218.057,221.000 215.827,227.600 213.577 C 234.200 211.327,243.020 208.273,247.200 206.791 C 251.380 205.309,258.040 203.016,262.000 201.696 C 265.960 200.376,272.980 197.976,277.600 196.362 C 282.220 194.748,293.645 190.790,302.988 187.566 C 325.566 179.776,324.822 180.261,324.329 173.651 C 324.113 170.763,323.751 163.810,323.524 158.200 C 323.297 152.590,322.824 148.000,322.474 148.000 C 322.124 148.000,321.627 144.764,321.371 140.809 C 320.855 132.843,320.416 131.459,318.826 132.778 C 317.470 133.904,314.474 132.724,312.464 130.273 C 311.620 129.243,308.709 125.880,305.997 122.800 C 299.475 115.394,293.123 107.912,289.276 103.105 C 288.437 102.057,286.457 99.739,284.876 97.952 C 283.294 96.166,281.277 93.826,280.393 92.752 C 274.421 85.495,267.095 76.802,266.960 76.812 C 266.872 76.819,266.260 77.173,265.600 77.600 M149.230 112.857 C 150.824 115.941,150.793 126.520,149.179 129.640 C 146.563 134.699,142.601 131.867,141.829 124.385 C 140.675 113.205,145.512 105.669,149.230 112.857 M254.184 113.097 C 256.005 116.539,255.976 125.915,254.134 129.400 C 251.480 134.418,247.837 132.395,246.775 125.313 C 245.082 114.019,250.203 105.575,254.184 113.097 M206.296 122.041 C 214.892 125.034,218.508 128.780,218.599 134.785 C 218.707 141.972,212.014 149.533,203.800 151.503 C 201.559 152.040,200.959 153.110,202.400 154.000 C 202.871 154.291,203.200 159.075,203.200 165.647 C 203.200 171.781,203.489 176.800,203.843 176.800 C 205.611 176.800,213.226 172.261,216.702 169.136 C 221.209 165.084,222.237 164.872,224.696 167.489 L 226.470 169.378 222.610 173.078 C 206.894 188.138,187.411 188.214,171.800 173.274 C 168.380 170.002,168.141 168.920,170.409 166.978 C 172.698 165.018,173.312 165.193,177.555 169.008 C 181.547 172.597,188.258 176.245,192.559 177.163 L 195.119 177.709 195.367 165.855 C 195.503 159.335,195.920 153.370,196.293 152.600 C 196.841 151.469,196.606 151.200,195.071 151.200 C 189.420 151.200,180.796 141.428,180.803 135.032 C 180.809 130.170,187.867 122.420,192.320 122.388 C 193.244 122.381,194.540 122.027,195.200 121.600 C 196.984 120.447,202.330 120.660,206.296 122.041 M82.931 133.286 C 80.845 135.536,78.653 145.312,79.381 149.121 C 79.594 150.238,79.453 150.956,79.067 150.718 C 78.672 150.473,78.460 157.196,78.583 166.142 C 78.799 181.903,78.811 182.002,80.600 182.256 C 81.590 182.396,82.424 182.396,82.453 182.256 C 82.482 182.115,82.862 177.320,83.297 171.600 C 85.125 147.602,85.649 140.940,86.084 136.200 C 86.597 130.601,85.963 130.015,82.931 133.286 M272.571 284.495 C 272.299 284.768,272.599 285.513,273.238 286.152 C 274.919 287.834,274.678 288.734,272.302 289.637 C 270.012 290.508,269.810 295.879,271.874 301.000 L 272.760 303.200 281.180 303.200 C 288.131 303.200,289.600 302.991,289.600 302.000 C 289.600 301.053,288.461 300.797,284.200 300.788 C 277.707 300.773,276.521 300.189,277.233 297.355 C 277.739 295.338,277.994 295.254,284.270 295.031 C 292.820 294.728,294.848 292.000,286.524 292.000 C 280.323 292.000,279.347 291.592,279.806 289.190 C 280.158 287.350,280.497 287.249,287.079 287.030 C 292.909 286.836,294.024 286.582,294.250 285.400 C 294.520 283.986,273.939 283.127,272.571 284.495 M303.794 292.868 C 303.020 293.318,302.055 293.481,301.648 293.230 C 301.242 292.979,301.464 293.884,302.141 295.243 C 303.289 297.544,303.265 297.832,301.788 299.456 C 299.578 301.888,300.367 303.200,304.040 303.200 L 307.146 303.200 305.526 300.454 L 303.906 297.708 306.953 294.876 L 310.000 292.043 307.600 292.046 C 306.280 292.047,304.567 292.417,303.794 292.868 M399.402 356.400 C 399.411 358.160,399.574 358.786,399.766 357.791 C 399.957 356.796,399.950 355.356,399.750 354.591 C 399.549 353.826,399.393 354.640,399.402 356.400 M119.155 368.611 C 117.816 372.285,117.091 374.510,114.789 382.000 C 113.572 385.960,112.281 389.920,111.921 390.800 C 108.939 398.080,101.037 424.599,101.703 425.092 C 109.958 431.204,124.084 432.885,131.170 428.600 C 138.613 424.099,138.352 425.120,138.454 400.112 L 138.543 378.224 135.971 375.570 C 133.523 373.045,126.911 369.067,122.154 367.258 C 120.150 366.496,119.881 366.618,119.155 368.611 M271.290 369.813 C 267.599 371.663,262.829 374.821,260.690 376.830 L 256.800 380.482 256.800 399.466 C 256.800 413.837,257.068 419.077,257.905 421.026 C 262.475 431.677,276.247 434.911,289.913 428.542 C 293.385 426.924,296.715 425.600,297.313 425.600 C 297.911 425.600,298.400 425.407,298.400 425.172 C 298.400 424.640,294.470 412.183,293.614 410.000 C 293.268 409.120,292.330 406.240,291.529 403.600 C 290.727 400.960,289.785 398.458,289.436 398.040 C 289.086 397.622,288.800 396.627,288.800 395.829 C 288.800 395.031,288.466 393.753,288.058 392.989 C 287.649 392.225,286.736 389.620,286.027 387.200 C 285.318 384.780,284.437 382.080,284.069 381.200 C 283.701 380.320,282.795 377.440,282.057 374.800 C 279.366 365.183,279.967 365.461,271.290 369.813 " stroke="none" fill="#f4f3f1" fill-rule="evenodd"></path><path id="path8" d="M58.001 177.597 C 57.686 179.029,57.737 180.425,58.114 180.700 C 59.191 181.485,60.800 184.654,60.800 185.989 C 60.800 186.655,61.199 187.200,61.686 187.200 C 62.173 187.200,62.364 187.740,62.111 188.400 C 61.857 189.060,61.999 189.600,62.425 189.600 C 62.851 189.600,63.202 190.050,63.204 190.600 C 63.206 191.150,64.466 194.052,66.004 197.049 C 67.542 200.045,68.800 203.015,68.800 203.649 C 68.800 204.282,69.160 204.800,69.600 204.800 C 70.040 204.800,70.400 205.425,70.400 206.189 C 70.400 206.952,71.376 209.506,72.568 211.863 C 74.531 215.741,74.610 216.219,73.408 216.892 C 72.677 217.301,71.547 218.167,70.897 218.818 C 70.246 219.468,69.511 220.000,69.263 220.000 C 68.718 220.000,65.312 222.856,62.585 225.600 C 61.492 226.700,60.842 227.154,61.140 226.609 C 61.502 225.949,61.271 225.777,60.446 226.093 C 59.766 226.354,59.408 226.890,59.652 227.284 C 59.895 227.678,59.755 228.000,59.341 228.000 C 58.143 228.000,47.200 239.334,47.200 240.575 C 47.200 241.190,46.840 241.472,46.400 241.200 C 45.960 240.928,45.600 241.104,45.600 241.591 C 45.600 242.078,44.700 243.310,43.600 244.330 C 42.500 245.349,41.600 246.474,41.600 246.829 C 41.600 247.184,41.088 248.042,40.463 248.737 C 39.838 249.432,39.208 250.531,39.063 251.181 C 38.918 251.830,38.039 252.988,37.108 253.753 C 36.178 254.519,34.938 256.328,34.352 257.773 C 33.767 259.218,32.605 261.011,31.771 261.758 C 30.936 262.504,30.487 263.494,30.774 263.958 C 31.060 264.421,30.913 264.800,30.447 264.800 C 29.981 264.800,29.600 265.340,29.600 266.000 C 29.600 266.660,29.240 267.200,28.800 267.200 C 28.360 267.200,28.000 267.881,28.000 268.714 C 28.000 269.547,27.457 270.437,26.793 270.692 C 26.128 270.947,25.631 271.435,25.687 271.778 C 25.956 273.416,25.533 275.253,24.966 274.903 C 24.617 274.687,24.275 275.264,24.206 276.183 C 24.137 277.103,23.773 278.068,23.398 278.328 C 22.556 278.912,20.000 284.320,20.000 285.521 C 20.000 286.004,19.640 286.400,19.200 286.400 C 18.760 286.400,18.400 287.099,18.400 287.953 C 18.400 288.807,18.061 289.715,17.646 289.971 C 17.232 290.228,16.651 292.049,16.355 294.019 C 16.060 295.988,15.499 297.600,15.109 297.600 C 14.719 297.600,14.400 298.140,14.400 298.800 C 14.400 299.460,14.100 300.000,13.733 300.000 C 13.367 300.000,13.067 300.474,13.067 301.053 C 13.067 302.260,10.553 310.116,9.503 312.189 C 9.117 312.953,8.800 314.504,8.800 315.636 C 8.800 316.768,8.459 317.484,8.042 317.226 C 7.617 316.963,7.046 318.865,6.741 321.563 C 6.442 324.206,5.923 326.200,5.588 325.993 C 5.253 325.786,4.777 326.603,4.531 327.808 C 4.284 329.014,3.656 332.160,3.135 334.800 C 2.615 337.440,1.786 339.857,1.294 340.171 C -0.121 341.074,0.065 371.051,1.491 371.932 C 2.411 372.501,2.411 372.674,1.491 373.040 C 0.716 373.348,0.690 373.492,1.400 373.537 C 1.950 373.572,2.400 374.283,2.400 375.118 C 2.400 375.953,3.480 378.813,4.800 381.473 C 6.120 384.134,7.200 386.611,7.200 386.979 C 7.200 387.346,7.920 388.166,8.800 388.800 C 9.680 389.434,10.400 390.615,10.400 391.424 C 10.400 392.233,10.760 392.672,11.200 392.400 C 11.640 392.128,12.000 392.258,12.000 392.689 C 12.000 393.940,24.427 406.174,26.301 406.769 C 27.236 407.065,28.000 407.644,28.000 408.054 C 28.000 408.464,28.741 408.800,29.647 408.800 C 30.553 408.800,31.078 409.149,30.814 409.577 C 30.551 410.004,31.249 410.583,32.367 410.863 C 34.299 411.348,34.403 411.657,34.461 417.087 C 34.495 420.229,34.708 423.520,34.935 424.400 C 35.162 425.280,35.536 429.690,35.765 434.200 C 35.994 438.710,36.453 442.400,36.786 442.400 C 37.118 442.400,37.607 445.010,37.872 448.200 C 38.137 451.390,38.541 455.080,38.769 456.400 C 38.998 457.720,39.419 460.870,39.706 463.400 L 40.228 468.000 200.033 468.000 L 359.839 468.000 360.298 464.200 C 360.551 462.110,360.944 459.320,361.172 458.000 C 361.400 456.680,361.815 453.080,362.095 450.000 C 362.375 446.920,362.918 444.280,363.302 444.133 C 363.686 443.987,364.000 440.837,364.000 437.133 C 364.000 433.430,364.290 430.400,364.645 430.400 C 364.999 430.400,365.308 429.590,365.331 428.600 C 365.354 427.610,365.424 423.281,365.487 418.980 C 365.597 411.400,365.662 411.137,367.621 410.392 C 368.732 409.970,369.850 409.079,370.106 408.412 C 370.362 407.745,371.121 407.200,371.794 407.200 C 372.466 407.200,373.851 406.300,374.870 405.200 C 375.890 404.100,377.080 403.200,377.515 403.200 C 377.950 403.200,378.562 402.784,378.876 402.276 C 379.254 401.665,379.093 401.572,378.400 402.000 C 377.707 402.428,377.546 402.335,377.924 401.724 C 378.238 401.216,378.948 400.800,379.503 400.800 C 380.422 400.800,384.000 397.306,384.000 396.408 C 384.000 396.200,385.260 394.732,386.800 393.146 C 388.340 391.560,389.600 389.792,389.600 389.217 C 389.600 388.642,390.108 387.976,390.729 387.738 C 391.350 387.499,392.323 386.021,392.890 384.452 C 393.457 382.884,394.209 381.600,394.561 381.600 C 394.912 381.600,395.200 380.730,395.200 379.667 C 395.200 378.603,395.606 377.598,396.101 377.433 C 396.597 377.268,397.183 375.258,397.403 372.966 C 397.623 370.675,398.118 368.800,398.502 368.800 C 399.655 368.800,399.369 345.302,398.200 344.043 C 397.400 343.181,397.400 343.078,398.200 343.530 C 398.750 343.840,399.200 343.713,399.200 343.247 C 399.200 342.781,398.874 342.400,398.475 342.400 C 398.076 342.400,397.503 340.600,397.200 338.400 C 396.897 336.200,396.402 334.400,396.099 334.400 C 395.797 334.400,395.470 333.446,395.374 332.281 C 395.277 331.115,394.884 329.765,394.500 329.281 C 393.823 328.427,392.386 321.012,392.663 319.800 C 392.738 319.470,392.440 319.200,392.000 319.200 C 391.560 319.200,391.200 318.300,391.200 317.200 C 391.200 316.100,390.881 315.200,390.491 315.200 C 390.101 315.200,389.540 313.588,389.245 311.619 C 388.949 309.649,388.368 307.828,387.954 307.571 C 387.539 307.315,387.200 306.407,387.200 305.553 C 387.200 304.699,386.917 304.000,386.570 304.000 C 386.224 304.000,385.852 302.844,385.745 301.431 C 385.637 300.019,385.229 298.665,384.838 298.423 C 384.447 298.182,383.859 296.908,383.531 295.592 C 383.204 294.276,382.297 292.057,381.516 290.660 C 380.734 289.264,379.854 286.834,379.559 285.260 C 379.263 283.687,378.702 282.400,378.311 282.400 C 377.920 282.400,377.600 281.860,377.600 281.200 C 377.600 280.540,377.240 280.000,376.800 280.000 C 376.360 280.000,376.000 279.280,376.000 278.400 C 376.000 277.520,375.640 276.800,375.200 276.800 C 374.760 276.800,374.439 276.530,374.487 276.200 C 374.661 274.992,373.393 272.000,372.707 272.000 C 372.318 272.000,372.000 271.280,372.000 270.400 C 372.000 269.520,371.679 268.800,371.287 268.800 C 370.894 268.800,370.348 267.900,370.071 266.800 C 369.795 265.700,369.195 264.800,368.738 264.800 C 368.280 264.800,368.103 264.481,368.344 264.091 C 368.585 263.701,368.246 262.936,367.591 262.393 C 366.936 261.849,366.400 260.934,366.400 260.359 C 366.400 259.784,365.916 258.831,365.325 258.239 C 364.734 257.648,363.282 255.630,362.098 253.755 C 359.850 250.195,358.781 248.856,354.800 244.618 C 353.480 243.213,352.420 241.869,352.445 241.631 C 352.567 240.453,336.300 223.966,335.654 224.613 C 335.404 224.863,335.200 224.587,335.200 224.000 C 335.200 223.413,334.972 223.161,334.694 223.440 C 334.415 223.718,333.489 223.058,332.636 221.973 C 331.782 220.888,330.369 220.000,329.495 220.000 C 328.621 220.000,328.088 219.706,328.310 219.346 C 328.532 218.986,328.014 218.186,327.157 217.569 C 326.301 216.952,325.600 215.986,325.600 215.423 C 325.600 214.861,325.272 214.400,324.871 214.400 C 324.470 214.400,324.253 213.950,324.389 213.400 C 325.126 210.413,325.864 208.800,326.493 208.800 C 326.882 208.800,327.200 208.080,327.200 207.200 C 327.200 206.320,327.483 205.600,327.830 205.600 C 328.176 205.600,328.511 204.911,328.575 204.069 C 328.756 201.658,331.635 195.902,332.318 196.584 C 332.656 196.923,332.813 196.833,332.667 196.384 C 332.377 195.496,334.249 190.718,337.366 184.387 C 340.611 177.798,339.854 175.570,334.426 175.723 C 332.020 175.791,329.920 176.241,329.759 176.723 C 329.598 177.205,328.769 177.600,327.916 177.600 C 327.063 177.600,325.016 178.493,323.365 179.585 C 321.715 180.677,312.633 184.239,303.183 187.499 C 293.732 190.760,282.220 194.748,277.600 196.362 C 272.980 197.976,265.960 200.376,262.000 201.696 C 258.040 203.016,251.380 205.309,247.200 206.791 C 243.020 208.273,234.200 211.327,227.600 213.577 C 221.000 215.827,214.611 218.057,213.401 218.531 C 211.940 219.104,209.969 221.439,207.523 225.497 C 199.436 238.911,198.154 238.912,189.894 225.515 C 185.948 219.115,185.596 218.766,182.000 217.683 C 180.680 217.286,170.600 213.845,159.600 210.036 C 148.600 206.227,137.080 202.261,134.000 201.223 C 130.920 200.185,120.480 196.573,110.800 193.197 C 101.120 189.820,92.300 186.779,91.200 186.440 C 90.100 186.100,87.765 185.052,86.012 184.111 C 84.258 183.170,82.155 182.400,81.338 182.400 C 80.521 182.400,78.937 181.680,77.818 180.800 C 76.700 179.920,75.288 179.200,74.681 179.200 C 74.075 179.200,72.863 178.840,71.989 178.400 C 71.115 177.960,69.636 177.209,68.702 176.732 C 67.768 176.255,65.107 175.668,62.788 175.429 L 58.572 174.994 58.001 177.597 M75.600 199.854 C 84.593 208.414,96.944 214.852,107.600 216.531 C 108.920 216.739,110.720 217.217,111.600 217.594 C 113.338 218.338,115.253 218.787,123.200 220.308 C 126.060 220.855,128.940 221.523,129.600 221.792 C 130.953 222.343,133.669 222.858,142.538 224.242 C 145.914 224.769,148.944 225.470,149.272 225.800 C 149.599 226.130,151.072 226.400,152.544 226.400 C 154.017 226.400,155.847 226.722,156.611 227.116 C 158.146 227.907,167.086 229.573,173.000 230.170 C 175.090 230.382,176.800 230.880,176.800 231.277 C 176.800 231.675,178.223 232.000,179.962 232.000 C 181.702 232.000,183.952 232.338,184.962 232.752 C 185.973 233.165,188.510 233.727,190.600 234.001 C 194.312 234.486,195.977 236.000,192.800 236.000 C 191.920 236.000,191.200 235.666,191.200 235.257 C 191.200 234.848,190.030 234.529,188.600 234.547 C 184.601 234.599,176.000 233.442,176.000 232.852 C 176.000 232.563,174.661 232.237,173.024 232.127 C 171.388 232.016,169.858 231.651,169.624 231.314 C 169.391 230.977,168.480 230.666,167.600 230.622 C 161.688 230.328,154.400 229.258,154.400 228.684 C 154.400 228.308,152.960 228.000,151.200 228.000 C 149.440 228.000,148.000 227.683,148.000 227.295 C 148.000 226.907,144.940 226.334,141.200 226.023 C 137.460 225.711,134.400 225.129,134.400 224.728 C 134.400 224.328,132.420 224.000,130.000 224.000 C 127.580 224.000,125.600 223.640,125.600 223.200 C 125.600 222.760,124.160 222.400,122.400 222.400 C 120.640 222.400,119.200 222.040,119.200 221.600 C 119.200 221.161,118.030 220.817,116.600 220.836 C 111.858 220.899,104.000 219.819,104.000 219.104 C 104.000 218.717,102.560 218.400,100.800 218.400 C 99.040 218.400,97.600 218.078,97.600 217.685 C 97.600 217.291,96.790 216.978,95.800 216.988 C 92.106 217.025,84.000 215.749,84.000 215.130 C 84.000 214.777,82.290 214.378,80.200 214.244 C 77.684 214.082,76.468 213.662,76.600 213.000 C 76.710 212.450,76.480 212.000,76.089 212.000 C 75.698 212.000,75.142 210.740,74.853 209.200 C 74.564 207.660,74.072 206.400,73.759 206.400 C 73.030 206.400,71.487 202.745,70.804 199.400 C 70.512 197.970,69.941 196.800,69.536 196.800 C 69.131 196.800,68.800 196.080,68.800 195.200 C 68.800 194.320,68.440 193.600,68.000 193.600 C 67.560 193.600,67.202 193.150,67.204 192.600 C 67.206 192.050,68.376 192.772,69.804 194.204 C 71.232 195.636,73.840 198.179,75.600 199.854 M329.800 193.376 C 329.250 193.573,328.800 194.423,328.800 195.267 C 328.800 196.110,328.440 196.800,328.000 196.800 C 327.560 196.800,327.200 197.859,327.200 199.153 C 327.200 200.447,326.834 201.732,326.387 202.008 C 325.940 202.284,325.781 202.846,326.034 203.255 C 326.287 203.665,326.113 204.000,325.647 204.000 C 325.181 204.000,324.800 204.540,324.800 205.200 C 324.800 205.860,324.440 206.400,324.000 206.400 C 323.560 206.400,323.200 206.940,323.200 207.600 C 323.200 208.260,322.824 208.800,322.365 208.800 C 321.906 208.800,321.616 209.250,321.722 209.800 C 322.235 212.477,320.685 214.400,318.013 214.400 C 316.539 214.400,315.213 214.711,315.067 215.092 C 314.807 215.766,306.621 216.967,302.200 216.980 C 300.990 216.984,300.000 217.305,300.000 217.693 C 300.000 218.082,298.590 218.400,296.867 218.400 C 295.143 218.400,293.613 218.717,293.467 219.104 C 293.224 219.745,284.576 220.959,280.200 220.966 C 279.210 220.968,278.400 221.291,278.400 221.685 C 278.400 222.078,276.780 222.400,274.800 222.400 C 272.820 222.400,271.200 222.760,271.200 223.200 C 271.200 223.640,269.790 224.000,268.067 224.000 C 266.343 224.000,264.813 224.314,264.667 224.699 C 264.425 225.331,254.419 226.690,251.000 226.555 C 250.230 226.524,249.600 226.837,249.600 227.250 C 249.600 227.662,248.160 228.000,246.400 228.000 C 244.640 228.000,243.200 228.312,243.200 228.693 C 243.200 229.267,237.729 230.054,230.000 230.591 C 229.120 230.652,228.199 230.994,227.953 231.351 C 227.707 231.708,225.997 232.059,224.153 232.131 C 222.309 232.203,220.800 232.513,220.800 232.819 C 220.800 233.457,212.882 234.623,209.000 234.558 C 207.570 234.534,206.400 234.848,206.400 235.257 C 206.400 235.666,205.680 236.000,204.800 236.000 C 201.623 236.000,203.288 234.486,207.000 234.001 C 209.090 233.727,211.627 233.165,212.638 232.752 C 213.648 232.338,215.697 232.000,217.190 232.000 C 218.684 232.000,220.128 231.640,220.400 231.200 C 220.672 230.760,222.259 230.400,223.928 230.400 C 225.596 230.400,228.005 230.042,229.281 229.604 C 231.387 228.882,236.998 227.834,245.000 226.669 C 246.650 226.429,248.000 225.956,248.000 225.619 C 248.000 225.282,250.874 224.756,254.386 224.450 C 257.898 224.143,260.980 223.557,261.233 223.146 C 261.487 222.736,262.912 222.400,264.400 222.400 C 265.888 222.400,267.328 222.040,267.600 221.600 C 267.872 221.160,269.192 220.800,270.533 220.800 C 273.088 220.800,283.251 218.689,286.000 217.588 C 286.880 217.235,290.569 216.283,294.198 215.473 C 297.827 214.663,300.797 213.730,300.798 213.400 C 300.799 213.070,301.520 212.800,302.400 212.800 C 303.280 212.800,304.000 212.479,304.000 212.087 C 304.000 211.694,304.983 211.127,306.185 210.825 C 309.235 210.060,317.249 204.189,324.163 197.657 C 327.373 194.624,330.180 192.339,330.400 192.580 C 330.620 192.822,330.350 193.180,329.800 193.376 M298.134 274.450 C 318.362 283.080,313.759 312.607,291.936 314.209 C 284.763 314.736,273.600 309.275,273.600 305.240 C 273.600 304.693,272.973 303.021,272.206 301.523 C 271.369 299.889,270.809 296.992,270.806 294.279 C 270.799 289.277,269.919 288.811,269.199 293.428 C 268.107 300.428,267.199 302.512,265.353 302.249 C 264.138 302.076,263.656 301.508,263.781 300.400 C 263.880 299.520,264.200 296.910,264.491 294.600 C 264.926 291.148,264.804 290.400,263.808 290.400 C 261.719 290.400,260.430 288.210,261.651 286.738 C 262.449 285.777,263.885 285.539,267.684 285.738 C 270.427 285.882,272.642 285.820,272.606 285.600 C 272.424 284.468,274.682 280.340,276.231 278.975 C 283.175 272.854,290.734 271.292,298.134 274.450 M226.847 286.751 C 229.108 288.427,226.469 291.327,224.055 289.820 C 222.724 288.989,219.594 290.594,220.886 291.446 C 221.059 291.560,222.230 292.173,223.489 292.810 C 228.128 295.153,227.821 300.471,222.913 302.800 C 220.052 304.158,216.291 303.212,214.771 300.752 C 214.050 299.586,216.970 297.482,217.960 298.454 C 218.378 298.864,219.548 299.200,220.560 299.200 C 222.748 299.200,223.079 296.989,221.000 296.256 C 218.694 295.442,216.000 292.623,216.000 291.024 C 216.000 286.848,223.168 284.024,226.847 286.751 M233.706 288.829 C 232.846 296.957,233.098 298.800,235.074 298.800 C 237.173 298.800,239.166 294.488,239.188 289.898 C 239.202 287.062,240.948 285.179,242.876 285.919 C 245.722 287.011,241.512 302.400,238.368 302.400 C 237.681 302.400,236.724 302.796,236.239 303.281 C 233.354 306.166,227.209 300.023,228.363 295.406 C 228.666 294.193,229.111 291.940,229.352 290.400 C 230.203 284.957,234.272 283.489,233.706 288.829 M252.764 290.600 C 254.703 294.739,255.115 295.217,255.153 293.374 C 255.224 289.991,257.326 285.600,258.874 285.600 C 260.365 285.600,260.029 296.115,258.401 300.396 C 256.963 304.179,253.529 303.140,251.370 298.269 C 249.333 293.674,248.246 293.838,247.853 298.800 C 247.627 301.659,247.355 302.028,245.300 302.263 C 243.168 302.506,243.031 302.361,243.421 300.263 C 243.652 299.018,244.224 295.895,244.691 293.323 C 246.514 283.293,248.954 282.470,252.764 290.600 M323.474 286.488 C 327.284 288.224,327.575 292.320,324.074 294.924 C 322.957 295.755,322.976 296.151,324.262 298.848 C 325.313 301.053,325.445 302.001,324.758 302.426 C 323.033 303.492,321.060 302.301,319.976 299.540 C 318.801 296.545,317.600 295.924,317.600 298.311 C 317.600 300.624,315.031 303.339,313.668 302.466 C 312.426 301.672,313.342 292.266,315.096 287.800 C 316.058 285.350,319.719 284.777,323.474 286.488 M332.307 288.420 C 331.910 298.562,330.181 303.680,327.499 302.651 C 325.782 301.992,326.533 295.109,329.258 286.541 C 329.937 284.408,332.404 285.929,332.307 288.420 M318.400 291.200 C 318.400 291.640,319.300 292.000,320.400 292.000 C 321.500 292.000,322.400 291.640,322.400 291.200 C 322.400 290.760,321.500 290.400,320.400 290.400 C 319.300 290.400,318.400 290.760,318.400 291.200 M294.400 292.639 C 294.400 292.991,295.632 293.135,297.138 292.959 C 299.525 292.680,300.037 292.951,301.132 295.069 C 302.502 297.718,302.186 298.378,298.209 301.164 C 297.267 301.823,296.685 302.551,296.915 302.782 C 297.145 303.012,298.705 302.014,300.382 300.564 L 303.431 297.929 302.024 294.964 C 300.696 292.165,294.400 290.245,294.400 292.639 M292.200 301.997 C 290.696 303.705,290.954 304.010,293.800 303.891 C 295.601 303.816,295.861 303.677,294.644 303.441 C 293.514 303.222,293.046 302.691,293.330 301.950 C 293.882 300.512,293.493 300.528,292.200 301.997 M54.135 331.696 C 53.621 332.189,50.680 333.943,47.600 335.594 C 44.520 337.246,39.688 339.878,36.863 341.444 C 34.037 343.010,32.025 343.776,32.390 343.146 C 33.277 341.616,38.629 334.106,39.193 333.600 C 39.438 333.380,41.601 330.680,44.000 327.600 C 46.399 324.520,48.730 321.743,49.181 321.428 C 50.466 320.530,55.310 330.570,54.135 331.696 M352.599 324.254 C 353.589 325.707,355.029 327.603,355.799 328.466 C 357.998 330.930,367.200 343.211,367.200 343.682 C 367.200 343.915,364.590 342.685,361.400 340.948 C 358.210 339.211,353.440 336.621,350.800 335.192 C 343.522 331.253,343.602 331.419,346.450 326.161 C 349.305 320.889,350.134 320.632,352.599 324.254 M127.979 369.989 C 130.222 371.126,133.431 373.297,135.110 374.814 C 138.720 378.075,139.200 377.813,139.200 372.579 L 139.200 368.625 191.000 369.224 C 219.490 369.553,243.700 369.922,244.800 370.045 C 245.900 370.167,248.859 370.297,251.376 370.333 L 255.952 370.400 255.983 406.441 L 256.014 442.481 207.807 441.937 C 181.293 441.638,155.100 441.170,149.600 440.897 L 139.600 440.400 139.374 431.400 C 139.129 421.663,139.023 421.393,136.633 424.431 C 130.049 432.801,112.563 433.132,101.703 425.092 C 101.037 424.599,108.939 398.080,111.921 390.800 C 112.281 389.920,113.572 385.960,114.789 382.000 C 117.091 374.510,117.816 372.285,119.155 368.611 C 120.057 366.135,120.514 366.206,127.979 369.989 M279.822 368.200 C 280.312 369.190,281.318 372.160,282.057 374.800 C 282.795 377.440,283.701 380.320,284.069 381.200 C 284.437 382.080,285.318 384.780,286.027 387.200 C 286.736 389.620,287.649 392.225,288.058 392.989 C 288.466 393.753,288.800 395.031,288.800 395.829 C 288.800 396.627,289.086 397.622,289.436 398.040 C 289.785 398.458,290.727 400.960,291.529 403.600 C 292.330 406.240,293.268 409.120,293.614 410.000 C 294.470 412.183,298.400 424.640,298.400 425.172 C 298.400 425.407,297.911 425.600,297.313 425.600 C 296.715 425.600,293.385 426.924,289.913 428.542 C 276.247 434.911,262.475 431.677,257.905 421.026 C 257.068 419.077,256.800 413.837,256.800 399.466 L 256.800 380.482 260.690 376.830 C 263.797 373.913,276.407 366.530,278.465 366.424 C 278.720 366.411,279.331 367.210,279.822 368.200 " stroke="none" fill="#8ec240" fill-rule="evenodd"></path><path id="path9" d="M67.204 192.600 C 67.202 193.150,67.560 193.600,68.000 193.600 C 68.440 193.600,68.800 194.320,68.800 195.200 C 68.800 196.080,69.131 196.800,69.536 196.800 C 69.941 196.800,70.512 197.970,70.804 199.400 C 71.487 202.745,73.030 206.400,73.759 206.400 C 74.072 206.400,74.564 207.660,74.853 209.200 C 75.142 210.740,75.698 212.000,76.089 212.000 C 76.480 212.000,76.710 212.450,76.600 213.000 C 76.468 213.662,77.684 214.082,80.200 214.244 C 82.290 214.378,84.000 214.777,84.000 215.130 C 84.000 215.749,92.106 217.025,95.800 216.988 C 96.790 216.978,97.600 217.291,97.600 217.685 C 97.600 218.078,99.040 218.400,100.800 218.400 C 102.560 218.400,104.000 218.717,104.000 219.104 C 104.000 219.819,111.858 220.899,116.600 220.836 C 118.030 220.817,119.200 221.161,119.200 221.600 C 119.200 222.040,120.640 222.400,122.400 222.400 C 124.160 222.400,125.600 222.760,125.600 223.200 C 125.600 223.640,127.580 224.000,130.000 224.000 C 132.420 224.000,134.400 224.328,134.400 224.728 C 134.400 225.129,137.460 225.711,141.200 226.023 C 144.940 226.334,148.000 226.907,148.000 227.295 C 148.000 227.683,149.440 228.000,151.200 228.000 C 152.960 228.000,154.400 228.308,154.400 228.684 C 154.400 229.258,161.688 230.328,167.600 230.622 C 168.480 230.666,169.391 230.977,169.624 231.314 C 169.858 231.651,171.388 232.016,173.024 232.127 C 174.661 232.237,176.000 232.563,176.000 232.852 C 176.000 233.442,184.601 234.599,188.600 234.547 C 190.030 234.529,191.200 234.848,191.200 235.257 C 191.200 235.666,191.920 236.000,192.800 236.000 C 195.977 236.000,194.312 234.486,190.600 234.001 C 188.510 233.727,185.973 233.165,184.962 232.752 C 183.952 232.338,181.702 232.000,179.962 232.000 C 178.223 232.000,176.800 231.675,176.800 231.277 C 176.800 230.880,175.090 230.382,173.000 230.170 C 167.086 229.573,158.146 227.907,156.611 227.116 C 155.847 226.722,154.017 226.400,152.544 226.400 C 151.072 226.400,149.599 226.130,149.272 225.800 C 148.944 225.470,145.914 224.769,142.538 224.242 C 133.669 222.858,130.953 222.343,129.600 221.792 C 128.940 221.523,126.060 220.855,123.200 220.308 C 115.253 218.787,113.338 218.338,111.600 217.594 C 110.720 217.217,108.920 216.739,107.600 216.531 C 94.603 214.483,83.455 207.897,69.804 194.204 C 68.376 192.772,67.206 192.050,67.204 192.600 M324.163 197.657 C 317.249 204.189,309.235 210.060,306.185 210.825 C 304.983 211.127,304.000 211.694,304.000 212.087 C 304.000 212.479,303.280 212.800,302.400 212.800 C 301.520 212.800,300.799 213.070,300.798 213.400 C 300.797 213.730,297.827 214.663,294.198 215.473 C 290.569 216.283,286.880 217.235,286.000 217.588 C 283.251 218.689,273.088 220.800,270.533 220.800 C 269.192 220.800,267.872 221.160,267.600 221.600 C 267.328 222.040,265.888 222.400,264.400 222.400 C 262.912 222.400,261.487 222.736,261.233 223.146 C 260.980 223.557,257.898 224.143,254.386 224.450 C 250.874 224.756,248.000 225.282,248.000 225.619 C 248.000 225.956,246.650 226.429,245.000 226.669 C 236.998 227.834,231.387 228.882,229.281 229.604 C 228.005 230.042,225.596 230.400,223.928 230.400 C 222.259 230.400,220.672 230.760,220.400 231.200 C 220.128 231.640,218.684 232.000,217.190 232.000 C 215.697 232.000,213.648 232.338,212.638 232.752 C 211.627 233.165,209.090 233.727,207.000 234.001 C 203.288 234.486,201.623 236.000,204.800 236.000 C 205.680 236.000,206.400 235.666,206.400 235.257 C 206.400 234.848,207.570 234.534,209.000 234.558 C 212.882 234.623,220.800 233.457,220.800 232.819 C 220.800 232.513,222.309 232.203,224.153 232.131 C 225.997 232.059,227.707 231.708,227.953 231.351 C 228.199 230.994,229.120 230.652,230.000 230.591 C 237.729 230.054,243.200 229.267,243.200 228.693 C 243.200 228.312,244.640 228.000,246.400 228.000 C 248.160 228.000,249.600 227.662,249.600 227.250 C 249.600 226.837,250.230 226.524,251.000 226.555 C 254.419 226.690,264.425 225.331,264.667 224.699 C 264.813 224.314,266.343 224.000,268.067 224.000 C 269.790 224.000,271.200 223.640,271.200 223.200 C 271.200 222.760,272.820 222.400,274.800 222.400 C 276.780 222.400,278.400 222.078,278.400 221.685 C 278.400 221.291,279.210 220.968,280.200 220.966 C 284.576 220.959,293.224 219.745,293.467 219.104 C 293.613 218.717,295.143 218.400,296.867 218.400 C 298.590 218.400,300.000 218.082,300.000 217.693 C 300.000 217.305,300.990 216.984,302.200 216.980 C 306.621 216.967,314.807 215.766,315.067 215.092 C 315.213 214.711,316.539 214.400,318.013 214.400 C 320.685 214.400,322.235 212.477,321.722 209.800 C 321.616 209.250,321.906 208.800,322.365 208.800 C 322.824 208.800,323.200 208.260,323.200 207.600 C 323.200 206.940,323.560 206.400,324.000 206.400 C 324.440 206.400,324.800 205.860,324.800 205.200 C 324.800 204.540,325.181 204.000,325.647 204.000 C 326.113 204.000,326.287 203.665,326.034 203.255 C 325.781 202.846,325.940 202.284,326.387 202.008 C 326.834 201.732,327.200 200.447,327.200 199.153 C 327.200 197.859,327.560 196.800,328.000 196.800 C 328.440 196.800,328.800 196.110,328.800 195.267 C 328.800 194.423,329.250 193.573,329.800 193.376 C 330.350 193.180,330.620 192.822,330.400 192.580 C 330.180 192.339,327.373 194.624,324.163 197.657 M217.964 287.564 C 215.007 290.521,216.769 296.000,220.677 296.000 C 221.213 296.000,222.000 296.810,222.425 297.800 C 223.085 299.336,223.168 299.367,222.989 298.006 C 222.874 297.129,221.798 295.941,220.597 295.366 C 216.157 293.238,216.007 288.620,220.316 286.744 C 221.873 286.066,222.264 285.651,221.364 285.631 C 220.574 285.614,219.044 286.484,217.964 287.564 M225.040 286.543 C 227.616 287.483,227.487 289.298,224.865 289.001 C 223.859 288.887,223.318 289.144,223.601 289.601 C 224.339 290.796,226.066 290.566,227.272 289.113 C 228.471 287.669,226.481 285.540,224.047 285.663 C 223.361 285.698,223.808 286.094,225.040 286.543 M230.560 286.560 C 230.032 287.088,229.636 288.258,229.680 289.160 C 229.747 290.534,229.850 290.475,230.316 288.800 C 231.193 285.645,233.235 286.249,233.023 289.600 C 232.846 292.397,232.847 292.398,233.699 290.174 C 235.116 286.472,233.039 284.081,230.560 286.560 M240.183 286.537 C 239.643 287.077,239.236 288.258,239.280 289.160 C 239.347 290.534,239.450 290.475,239.916 288.800 C 240.854 285.425,242.827 286.299,242.625 290.000 C 242.486 292.535,242.622 292.905,243.276 291.780 C 245.257 288.375,242.693 284.027,240.183 286.537 M245.642 288.600 C 244.486 292.762,244.745 293.920,245.956 290.000 C 247.066 286.401,249.088 285.474,250.905 287.730 C 252.006 289.097,252.027 289.074,251.216 287.400 C 249.734 284.341,246.640 285.007,245.642 288.600 M261.600 286.800 C 260.468 288.164,261.738 290.400,263.645 290.400 C 264.222 290.400,264.858 291.390,265.060 292.600 C 265.333 294.244,265.397 294.092,265.313 292.000 C 265.221 289.725,264.854 289.151,263.354 288.938 C 259.744 288.427,262.199 286.793,267.262 286.338 L 272.400 285.876 267.498 285.738 C 263.985 285.639,262.314 285.940,261.600 286.800 M315.730 286.200 C 315.530 286.530,317.322 286.830,319.713 286.866 C 322.245 286.904,323.630 286.659,323.030 286.278 C 321.734 285.455,316.218 285.396,315.730 286.200 M329.361 286.106 C 329.052 286.414,328.806 287.057,328.812 287.533 C 328.819 288.010,329.164 287.863,329.579 287.207 C 330.445 285.837,331.608 286.699,332.266 289.200 C 332.518 290.159,332.629 289.842,332.543 288.407 C 332.406 286.112,330.635 284.831,329.361 286.106 M325.333 289.600 C 325.926 292.944,326.076 293.200,326.615 291.794 C 326.842 291.203,326.534 289.838,325.932 288.760 C 324.872 286.865,324.852 286.893,325.333 289.600 M255.704 289.800 C 255.439 290.790,255.211 292.500,255.199 293.600 C 255.180 295.187,255.015 295.352,254.400 294.400 C 253.973 293.740,253.625 293.560,253.625 294.000 C 253.625 294.440,253.960 295.330,254.369 295.978 C 255.275 297.409,255.610 296.631,256.343 291.400 C 256.854 287.753,256.494 286.852,255.704 289.800 M314.119 290.943 C 313.163 295.925,312.642 300.377,313.062 299.980 C 313.625 299.448,315.266 289.399,314.856 288.990 C 314.689 288.822,314.357 289.701,314.119 290.943 M318.800 289.600 C 318.515 290.062,319.256 290.395,320.553 290.388 C 322.298 290.378,322.532 290.202,321.600 289.600 C 320.063 288.607,319.414 288.607,318.800 289.600 M268.897 291.400 C 268.533 292.390,268.036 295.000,267.793 297.200 C 267.485 299.993,267.546 300.476,267.995 298.800 C 270.026 291.219,270.552 286.909,268.897 291.400 M327.719 291.743 C 326.763 296.725,326.242 301.177,326.662 300.780 C 327.225 300.248,328.866 290.199,328.456 289.790 C 328.289 289.622,327.957 290.501,327.719 291.743 M258.801 294.127 C 258.515 296.257,257.939 299.072,257.519 300.382 C 256.984 302.052,257.009 302.511,257.601 301.919 C 258.506 301.014,260.316 291.249,259.694 290.627 C 259.488 290.421,259.086 291.996,258.801 294.127 M317.600 292.139 C 317.600 292.502,318.680 292.800,320.000 292.800 C 321.320 292.800,322.400 292.661,322.400 292.491 C 322.400 292.321,321.320 292.023,320.000 291.829 C 318.680 291.636,317.600 291.775,317.600 292.139 M228.486 294.065 C 227.456 296.749,228.853 302.400,230.547 302.400 C 230.926 302.400,230.648 301.502,229.929 300.404 C 229.010 299.002,228.777 297.572,229.147 295.604 C 229.692 292.697,229.332 291.859,228.486 294.065 M248.000 294.047 C 248.000 294.733,248.368 295.067,248.817 294.790 C 249.266 294.512,250.171 295.571,250.828 297.142 C 252.541 301.243,252.973 300.672,251.389 296.400 C 250.104 292.933,248.000 291.472,248.000 294.047 M295.200 293.228 C 295.200 293.464,295.750 294.495,296.421 295.521 C 297.573 297.278,297.497 297.540,295.106 300.092 C 290.132 305.402,295.627 304.032,301.300 298.549 C 303.151 296.761,300.587 292.800,297.579 292.800 C 296.271 292.800,295.200 292.993,295.200 293.228 M238.400 293.805 C 238.400 293.918,238.046 295.244,237.614 296.751 C 237.175 298.283,237.150 299.163,237.557 298.746 C 238.462 297.821,239.552 293.600,238.887 293.600 C 238.619 293.600,238.400 293.692,238.400 293.805 M232.095 296.040 C 231.988 298.342,233.312 300.028,235.160 299.944 C 236.017 299.905,235.905 299.695,234.800 299.264 C 233.920 298.921,232.973 297.597,232.695 296.320 C 232.211 294.098,232.185 294.086,232.095 296.040 M330.528 297.335 C 330.458 298.729,330.193 300.529,329.940 301.335 C 329.505 302.717,329.531 302.720,330.389 301.383 C 330.889 300.603,331.154 298.803,330.977 297.383 L 330.656 294.800 330.528 297.335 M241.600 296.959 C 241.600 297.633,240.854 299.133,239.942 300.292 C 239.030 301.451,238.613 302.400,239.016 302.400 C 240.051 302.400,242.848 296.981,242.165 296.298 C 241.854 295.988,241.600 296.285,241.600 296.959 M243.713 297.768 C 243.443 298.776,243.253 300.320,243.291 301.200 C 243.329 302.080,243.690 301.396,244.093 299.679 C 244.873 296.355,244.540 294.681,243.713 297.768 M316.780 298.200 C 316.351 299.410,315.622 301.120,315.160 302.000 C 314.511 303.238,314.692 303.173,315.961 301.711 C 316.862 300.673,317.600 299.173,317.600 298.378 C 317.600 297.583,318.050 296.752,318.600 296.530 C 319.387 296.212,319.383 296.113,318.580 296.063 C 318.019 296.028,317.209 296.990,316.780 298.200 M216.483 298.265 C 215.948 299.131,220.599 300.468,221.391 299.676 C 221.652 299.414,221.159 299.200,220.293 299.200 C 219.428 299.200,218.329 298.809,217.850 298.330 C 217.277 297.757,216.811 297.735,216.483 298.265 M324.262 300.103 C 324.489 300.819,324.253 301.830,323.737 302.350 C 323.019 303.074,323.126 303.170,324.200 302.762 C 325.817 302.146,325.907 301.661,324.712 300.000 C 323.966 298.963,323.905 298.977,324.262 300.103 M219.026 303.388 C 220.376 304.039,221.096 304.024,221.786 303.334 C 222.498 302.622,222.064 302.413,219.960 302.454 C 217.368 302.505,217.311 302.562,219.026 303.388 M233.426 303.388 C 234.776 304.039,235.496 304.024,236.186 303.334 C 236.898 302.622,236.464 302.413,234.360 302.454 C 231.768 302.505,231.711 302.562,233.426 303.388 M49.181 321.428 C 48.730 321.743,46.399 324.520,44.000 327.600 C 41.601 330.680,39.438 333.380,39.193 333.600 C 38.629 334.106,33.277 341.616,32.390 343.146 C 32.025 343.776,34.037 343.010,36.863 341.444 C 39.688 339.878,44.520 337.246,47.600 335.594 C 55.636 331.286,55.478 331.599,52.535 325.828 C 51.053 322.921,49.660 321.093,49.181 321.428 M346.450 326.161 C 343.602 331.419,343.522 331.253,350.800 335.192 C 353.440 336.621,358.210 339.211,361.400 340.948 C 364.590 342.685,367.200 343.915,367.200 343.682 C 367.200 343.211,357.998 330.930,355.799 328.466 C 355.029 327.603,353.589 325.707,352.599 324.254 C 350.134 320.632,349.305 320.889,346.450 326.161 " stroke="none" fill="#679c42" fill-rule="evenodd"></path></g></svg>