<?xml version="1.0" encoding="iso-8859-1"?>
<!-- Generator: Adobe Illustrator 18.0.0, SVG Export Plug-In . SVG Version: 6.00 Build 0)  -->
<!DOCTYPE svg PUBLIC "-//W3C//DTD SVG 1.1//EN" "http://www.w3.org/Graphics/SVG/1.1/DTD/svg11.dtd">
<svg version="1.1" id="Capa_1" xmlns="http://www.w3.org/2000/svg" xmlns:xlink="http://www.w3.org/1999/xlink" x="0px" y="0px"
	 viewBox="0 0 366.233 366.233" style="enable-background:new 0 0 366.233 366.233;" xml:space="preserve">
<g>
	<path d="M120.286,183.117c0,15.476,8.777,19.326,15.014,19.326c6.237,0,15.015-3.851,15.015-19.326
		c0-15.476-8.777-19.326-15.015-19.326C129.063,163.791,120.286,167.641,120.286,183.117z"/>
	<path d="M352.823,114.22c-9.217-22.728-22.75-43.112-40.224-60.586c-17.474-17.474-37.858-31.007-60.586-40.224
		C230.071,4.512,206.891,0,183.117,0c-23.774,0-46.954,4.512-68.897,13.41c-22.728,9.217-43.112,22.75-60.586,40.224
		C36.16,71.107,22.627,91.492,13.41,114.22C4.512,136.163,0,159.343,0,183.117s4.512,46.954,13.41,68.897
		c9.217,22.728,22.75,43.112,40.224,60.586c17.474,17.474,37.858,31.007,60.586,40.224c21.943,8.898,45.123,13.41,68.897,13.41
		c23.774,0,46.954-4.512,68.897-13.41c22.728-9.217,43.112-22.75,60.586-40.224c17.474-17.474,31.007-37.858,40.224-60.586
		c8.898-21.943,13.41-45.123,13.41-68.897S361.722,136.163,352.823,114.22z M183.117,20c24.983,0,49.963,5.709,72.825,17.117
		H110.292C133.154,25.709,158.134,20,183.117,20z M67.776,67.776c3.78-3.78,7.703-7.328,11.745-10.659h207.191
		c4.042,3.331,7.965,6.879,11.745,10.659c17.549,17.549,30.253,38.105,38.133,60.008h-58.57
		c-19.173-32.438-54.494-54.198-94.904-54.198c-40.409,0-75.731,21.76-94.904,54.198H49.182H29.643
		C37.523,105.881,50.226,85.325,67.776,67.776z M254.033,177.727v9.778h-24.33v23.253h-11.55v-55.283h39.345v9.779h-27.795v12.473
		H254.033z M206.986,177.727v9.778h-24.33v23.253h-11.55v-55.283h39.345v9.779h-27.795v12.473H206.986z M161.863,183.117
		c0,25.947-19.249,29.104-26.563,29.104s-26.563-3.157-26.563-29.104c0-25.948,19.249-29.104,26.563-29.104
		S161.863,157.169,161.863,183.117z M23.856,147.784h35.453h19.651c-3.893,11.274-6.013,23.375-6.013,35.973
		c0,12.122,1.964,23.784,5.58,34.693H23.856C18.72,195.196,18.72,171.038,23.856,147.784z M183.117,346.233
		c-24.983,0-49.963-5.709-72.825-17.117h145.649C233.08,340.524,208.099,346.233,183.117,346.233z M298.458,298.458
		c-4.164,4.165-12.982,11.669-12.982,11.669H80.758c0,0-8.818-7.505-12.982-11.669c-17.549-17.549-30.253-38.105-38.133-60.008
		h57.818c18.993,33.146,54.715,55.478,95.656,55.478s76.663-22.332,95.656-55.478h57.818
		C328.711,260.352,316.007,280.908,298.458,298.458z M342.378,218.45h-54.671c3.617-10.909,5.58-22.571,5.58-34.693
		c0-12.598-2.12-24.699-6.013-35.973h55.104C347.514,171.038,347.514,195.196,342.378,218.45z"/>
</g>
<g>
</g>
<g>
</g>
<g>
</g>
<g>
</g>
<g>
</g>
<g>
</g>
<g>
</g>
<g>
</g>
<g>
</g>
<g>
</g>
<g>
</g>
<g>
</g>
<g>
</g>
<g>
</g>
<g>
</g>
</svg>
