<?xml version="1.0" encoding="iso-8859-1"?>
<!-- Generator: Adobe Illustrator 16.0.0, SVG Export Plug-In . SVG Version: 6.00 Build 0)  -->
<!DOCTYPE svg PUBLIC "-//W3C//DTD SVG 1.1//EN" "http://www.w3.org/Graphics/SVG/1.1/DTD/svg11.dtd">
<svg version="1.1" id="Capa_1" xmlns="http://www.w3.org/2000/svg" xmlns:xlink="http://www.w3.org/1999/xlink" x="0px" y="0px"
	 width="325.418px" height="325.417px" viewBox="0 0 325.418 325.417" style="enable-background:new 0 0 325.418 325.417;"
	 xml:space="preserve">
<g>
	<g>
		<g>
			<path d="M199.285,71.517c-0.611-13.464,1.225-28.151-1.225-41.004c-0.611-4.284-1.836-6.731-5.508-8.568
				c-7.956-3.672-22.645-1.224-31.211-1.224c-15.3,0-30.6,0-45.9,1.224c-5.508,0.612-5.508,7.956,0,8.568
				c12.852,1.224,26.316,0.612,39.78,0.612c4.896,0,29.988-3.672,33.047,0c4.896,4.896,1.836,26.928,2.448,34.271
				c0,5.508,0.611,11.017,0.611,16.524c0,3.06,0,6.731,0.612,9.792c1.836,6.12,0.611,8.567-3.673,7.344
				c-7.956,3.672-26.927,1.224-35.495,1.224c-8.568,0.612-28.764,4.896-35.496-1.224c-6.12-6.12-2.448-25.704-2.448-34.884
				c0-11.017,0.612-21.42-1.224-32.437c0-1.224-2.448-1.224-3.06,0c-3.06,12.24-3.06,25.704-3.672,38.557
				c-0.612,11.628-3.06,25.092-0.612,36.107c0.612,1.225,1.836,2.448,3.06,3.061c11.016,3.06,25.092,0.611,36.72,0
				c14.076-0.612,31.824,1.836,45.288-1.225C206.018,103.954,199.285,84.37,199.285,71.517z"/>
			<path d="M321.073,203.709c0-1.836,0-3.06,0-4.896c0-0.612,0-1.226,0-1.837c0-18.973,0.611-38.557-12.24-53.856
				c-1.836-1.836-4.283-1.225-5.508,0c0-2.448-1.225-4.896-3.672-4.896c-44.063,0-88.128,0.612-132.191,1.836
				c0-1.836-1.225-4.284-1.225-6.12c-0.612-2.447-0.612-4.896-0.612-6.731c10.404,0,21.421-1.225,31.824-2.448
				c12.239-1.836,17.748-3.672,20.195-16.524c3.061-13.464,1.225-28.151,1.225-41.615c0.612-13.464,4.284-33.048,0.612-45.288
				c-4.284-14.688-17.748-14.076-31.213-16.524c-25.091-3.672-55.079-7.344-80.171-2.448c-9.18,1.837-15.912,4.284-16.524,14.076
				c-0.612,4.896,7.344,4.896,7.956,0c0.612-10.403,44.676-7.956,52.632-7.956c14.076,0.612,34.271,0,47.124,6.12
				c15.912,7.956,11.628,26.316,11.628,42.229c0,9.792,3.672,39.779-1.225,48.348c-14.075,22.644-67.319,14.688-89.351,12.24
				c-18.36-1.836-23.256-7.344-25.704-25.092c-0.612-7.345,0.612-15.912,1.224-23.257c0.612-15.3,1.224-31.212,0.612-46.512
				c0-1.836-2.448-1.836-3.06-0.612c-4.284,26.316-8.568,57.528-6.732,84.456c1.224,15.301,9.792,15.912,23.868,17.748
				c11.628,1.225,22.644,2.448,34.272,3.061c-0.612,3.06-0.612,5.508-1.224,8.567c0,1.836-0.612,3.672,0,4.896
				c-19.584,0.612-39.168,1.836-58.752,3.06c-5.508-0.611-10.404-1.224-15.912-1.224c0.612-6.12,1.836-14.688-4.896-17.136
				c-4.284-1.225-10.404-0.612-14.688-0.612c-6.12,0-12.24,0.612-18.36,0.612c-2.448,0-3.672,1.836-3.06,4.283
				c0.612,4.896,1.836,9.792,2.448,14.688c-4.284,0.612-9.18,1.836-13.464,2.448c-1.224,0-1.836,0.611-1.836,1.224
				c-1.224-0.612-2.448-0.612-2.448,0.612c-6.732,31.825-6.732,64.873-7.344,97.309c-0.612,16.523-9.18,55.079,3.672,69.155
				s47.736,6.732,63.648,6.732c37.944,0,76.5,0.611,114.443,1.224c33.659,0,70.991,4.896,104.651,0.612
				c14.075-1.836,23.867-6.732,27.54-20.809C327.193,274.089,321.686,234.309,321.073,203.709z M312.506,238.593
				c-20.196,1.226-39.78,4.896-60.589,4.896c0.612-4.284,0.612-8.568,0.612-13.464c18.972,2.446,40.392,4.282,58.14-1.226
				c0.612,0,0.612-0.61,1.225-0.61C311.894,231.25,311.894,234.921,312.506,238.593z M311.894,223.293
				c-0.611-0.612-1.224-0.612-1.836-0.612c-19.584,0.612-37.943,3.673-57.527,2.448c0-3.06-0.612-5.508-1.225-7.956
				c19.584,1.836,41.004,3.062,60.588-0.611C311.894,219.009,311.894,220.845,311.894,223.293z M248.245,206.77
				c17.748,5.509,44.677,2.447,63.647-3.061c0,1.836,0,3.672,0,6.12c-20.809,0.612-41.004,3.06-61.812,3.06
				C249.47,210.442,248.856,208.605,248.245,206.77z M299.041,147.405c1.225,0,2.448-0.611,3.061-1.224c0,0.612,0,1.224,0.612,1.836
				c3.061,4.896,5.508,9.792,7.344,15.301c-13.464,0-28.151,1.837-41.004,5.509c-1.836-6.121-2.447-12.854-2.447-18.974
				c0-0.611,0-0.611-0.612-1.224C277.01,148.017,288.025,147.405,299.041,147.405z M160.73,127.821
				c-0.612,2.448-1.224,4.896-1.224,7.345c0,1.836,0,4.284,0.612,6.12c-3.06,0-6.732,0-9.792,0.611c0-1.836,0-3.06,0-4.896
				c0-3.061-0.612-5.508-1.224-8.568C152.773,127.821,156.445,127.821,160.73,127.821z M55.465,132.717
				c1.836,0,6.732-0.612,8.568,0.612c0.612,0.611,0,6.731,0,9.792c-9.18,0-18.36,0.611-27.54,1.836
				c-0.612-3.672-0.612-7.956-1.224-11.628C42.002,132.717,48.733,132.717,55.465,132.717z M19.357,155.36
				c14.688-2.447,29.988-4.283,44.676-5.508c0,0,0,0,0.612,0c65.484,2.448,131.579,1.225,197.676-1.224c0,0,0,0,0,0.612
				c-2.448,8.567-1.836,17.136,0,25.705c0.611,2.446,3.061,3.06,4.896,2.446c14.688-1.836,29.376-3.672,44.676-4.282
				c0.612,7.344,1.225,14.688,0.612,22.03c-10.404,1.226-21.42,3.062-31.824,4.284c-11.017,1.226-22.645,0.612-33.048,4.284
				c-0.612,0-0.612,0.612-0.612,0.612c-12.239-27.54-41.615-46.514-70.991-39.168c-29.376-4.897-58.14,12.852-74.052,37.942
				c-27.54-5.508-56.916-4.896-85.068-4.896c0.612-14.688,0.612-29.376,0-43.453C17.522,155.36,18.747,155.36,19.357,155.36z
				 M174.806,283.881c-0.611,4.896-1.225,9.792-1.225,14.688c0,1.836,0,3.672,0,5.508c-6.731,0.611-13.463,0.611-20.196,0
				c1.224-7.956,3.06-16.524,2.448-23.868c10.404,3.672,22.032,4.284,33.047,1.224c0.611,2.448,1.224,4.896,1.836,7.956
				c1.225,3.062,2.447,6.732,5.508,7.956c1.225,0.612,2.448-0.61,2.448-1.836c0-3.06-1.836-5.508-3.061-7.956
				c-1.225-2.446-1.836-4.896-2.448-7.956c0.612,0,1.225-0.61,1.225-0.61c3.672-1.836,7.345-3.673,10.404-6.12l0,0
				c1.224,4.896,4.283,11.016,8.567,14.076c-10.404,7.955-22.645,14.075-35.496,16.522c-0.611-1.836-0.611-3.672-1.225-5.508
				c-0.611-4.284-0.611-8.568,0-13.464C177.253,283.27,175.417,282.658,174.806,283.881z M157.669,182.902
				c-3.06,0.61-6.12,1.836-8.568,3.06c-1.836-3.06-4.284-5.508-6.732-7.956c3.672-1.836,7.344-3.06,11.016-4.896v0.61
				C154.609,176.782,155.834,179.841,157.669,182.902z M156.445,171.885c3.06-0.61,6.12-1.836,9.18-1.836
				c0,0.612,0.612,1.836,1.837,1.226c2.447,0,4.896-0.612,7.955-0.612c0.612,2.448,1.225,4.896,1.836,7.344
				c0,0.612,0.612,1.226,0.612,1.226c-5.509,0-11.017,0.61-16.524,1.836C160.118,178.618,158.281,175.557,156.445,171.885z
				 M144.817,187.797c-1.836,0.612-3.06,1.226-4.896,2.448c-1.224,0.612-1.224,1.836-0.612,3.06c-2.448,1.836-4.284,3.672-6.12,6.12
				c-3.06-2.448-6.732-4.896-9.18-8.566l-0.612-0.612c4.284-4.284,9.18-7.344,14.688-10.404
				C140.534,182.29,142.371,185.349,144.817,187.797z M130.129,201.874c-3.06,3.672-5.508,7.956-7.344,12.24
				c-4.896-2.448-10.404-4.284-15.912-5.509c3.672-5.509,7.956-11.017,12.852-15.911
				C122.787,196.977,125.845,200.65,130.129,201.874z M121.562,219.622c-1.836,6.12-2.448,12.24-1.224,18.972c0,0,0,0-0.612-0.61
				c-6.732-1.837-14.688-0.612-22.032-0.612c1.224-8.568,3.672-17.136,7.344-24.48C111.157,214.725,116.053,217.173,121.562,219.622
				z M119.727,241.042c0.612,0,0.612-0.612,0.612-0.612c0.612,3.673,1.836,7.346,3.06,10.404c0,0.612,0.612,1.224,1.224,1.836
				c-7.344,5.508-14.076,12.24-20.808,18.972c-4.284-8.566-6.732-18.972-6.12-29.986
				C104.425,241.654,112.995,242.877,119.727,241.042z M105.649,274.089c7.344-5.508,14.688-11.016,20.808-17.136
				c3.06,4.896,6.12,8.567,10.404,12.24c-0.612,0-1.224,0-1.224,0.61c-5.508,6.732-10.404,14.688-14.688,22.646
				c-6.732-4.896-12.24-11.018-16.524-17.748C105.039,274.089,105.649,274.089,105.649,274.089z M138.697,271.641v-0.61
				c3.672,3.06,7.956,5.508,12.852,7.956c-2.448,7.344-2.448,15.912-2.448,24.479c-4.284-0.61-8.568-1.836-12.24-3.06
				c-0.612-0.612-1.224-0.612-1.836-1.226h-0.612c-3.06-1.224-6.12-3.06-9.18-4.896
				C130.129,287.553,135.637,279.597,138.697,271.641z M131.354,248.385c-9.792-22.644,1.836-47.124,22.644-58.752
				c18.971-4.896,39.78-3.672,54.467,10.404c22.645,21.42,7.344,58.752-17.137,70.38
				C169.298,280.822,141.146,271.03,131.354,248.385z M183.985,171.274c4.896,0.61,9.792,1.224,14.688,2.446
				c-2.448,2.448-3.673,4.896-4.896,7.346c-3.061-0.612-6.731-1.226-9.792-1.837c1.224-0.611,1.836-1.836,1.224-3.673
				C184.598,174.946,183.985,173.11,183.985,171.274z M223.153,202.486L223.153,202.486c-1.836-3.062-4.284-6.12-6.731-8.568
				c3.061-1.224,5.508-3.672,7.344-6.12c3.672,3.672,7.345,7.344,9.792,12.24C230.497,201.261,227.438,203.097,223.153,202.486z
				 M236.617,204.933c1.836,4.284,3.672,8.568,4.896,13.466c-3.672-0.612-7.956-0.612-11.628,0c-0.612,0-0.612,0-1.225,0
				c-0.611-3.062-1.225-6.732-2.447-9.792C229.272,207.994,233.558,207.381,236.617,204.933z M210.913,189.633
				c-3.672-2.447-7.344-4.284-11.628-6.12c1.836-2.446,3.672-4.896,5.508-7.344c5.509,1.836,10.404,4.896,14.688,7.956
				C217.033,186.574,213.974,188.41,210.913,189.633z M213.361,278.986c-1.836-2.448-3.061-4.896-3.673-7.346
				c0-0.61-0.611-1.224-1.224-1.224c2.447-2.448,4.896-4.896,7.344-7.344c1.836,1.224,4.284,2.447,6.12,3.672
				c2.448,1.224,4.896,3.06,7.956,4.284c-3.672,4.896-7.345,9.18-11.628,12.852C216.422,282.045,214.585,280.822,213.361,278.986z
				 M224.989,260.625c-1.836-1.224-3.672-2.448-6.12-3.06c2.448-3.674,4.896-7.956,6.12-12.24h0.611c2.448,0,4.896,0,7.345,0.611
				c2.447,0.611,4.283,1.837,6.731,1.837l0,0c-1.836,6.118-4.284,11.628-7.345,17.136
				C231.109,263.074,228.05,262.461,224.989,260.625z M227.438,239.818c1.225-4.896,1.837-10.404,1.837-15.912c0,0,0,0,0.611,0
				c4.283,0,8.567,0,12.853-0.612c0.611,6.732,0.611,13.464-0.612,19.584C237.842,240.429,231.722,239.818,227.438,239.818z
				 M16.91,202.486c26.928,3.06,55.692,6.119,82.62,3.672c-2.448,4.284-4.284,7.956-5.508,12.24
				c-25.704-1.226-51.408-2.448-77.724-3.674C16.297,211.053,16.91,206.77,16.91,202.486z M15.073,233.085
				c24.48-1.836,48.96-0.612,72.828-3.06c1.836,0,2.448-3.062,0.612-3.062c-23.868-3.672-49.572,0.612-73.44,4.284
				c0-2.448,0.612-4.896,0.612-6.731c0-1.837,0-3.673,0-5.509c25.092,1.836,50.796,3.672,75.888,4.896
				c-1.224,4.284-2.448,9.18-3.06,13.464c0,1.836,0,3.672,0,5.508l-0.612-0.612c-23.868-2.446-49.572-1.224-74.052,0
				C15.073,239.206,15.073,236.146,15.073,233.085z M12.015,270.417c25.704,0.612,52.02,3.672,77.724,1.836
				c1.836,0,2.448-3.06,0.612-3.672c-24.48-4.896-52.632-3.061-77.724-0.612c0.612-7.344,1.224-14.688,1.836-22.031
				c24.48,1.225,50.184,2.447,74.052,0c0,0,0.612,0,0.612-0.611c0,3.06,0,5.508,0.612,8.567l-0.612-0.611
				c-23.256-5.508-49.572-2.448-73.44-1.225c-2.448,0-2.448,4.283,0,4.283c23.868-1.224,48.96,2.448,72.828,0.612
				c0.612,0,1.224-0.612,1.224-1.225c1.836,11.017,6.12,21.421,12.24,29.376c-29.376-2.447-59.364-1.225-89.352-1.225
				C12.015,279.597,12.015,274.702,12.015,270.417z M283.741,314.482c-4.284,0-7.956,0-12.24,0c-11.628,1.836-24.479,0-36.107,0
				c-26.315,0-52.021,0-78.335,0c-23.868,0-48.348,0.61-72.216,0.61c-24.48,0-64.872,8.568-71.604-22.031
				c-0.612-1.837-0.612-3.673-0.612-6.119c30.6,1.224,61.812,3.672,92.412,2.446c2.448,3.062,5.508,5.51,8.568,7.956
				c-30.6-1.224-61.812,0-92.412,0.612c-1.224,0-1.224,1.836,0,2.448c33.66,2.447,68.544,4.896,102.816,3.672
				c13.464,7.344,30.6,11.016,47.736,9.18c9.181-0.611,18.36-3.06,26.929-6.73c36.107,0.61,72.827-0.612,108.323-6.12
				C302.714,307.75,295.369,312.034,283.741,314.482z M310.058,293.673L310.058,293.673c-33.048,1.225-66.708,4.284-99.756,7.956
				c4.896-3.06,9.792-6.12,14.075-10.403c28.765-0.611,57.528-0.611,86.292-2.447C310.669,290.614,310.058,292.45,310.058,293.673z
				 M310.669,280.822c-26.928,0.61-53.855,3.06-80.783,5.508c5.508-5.508,9.792-11.628,13.464-18.36
				c0.611,0.612,1.225,0.612,1.836,0.612c22.032,0,45.899,1.224,67.32-2.448C311.894,271.03,311.894,275.925,310.669,280.822z
				 M245.186,264.297c2.448-5.508,4.284-11.016,5.509-17.136c19.584,2.448,42.229,3.672,61.812-1.836c0,4.896,0,9.792,0,14.076
				C290.474,258.177,267.218,261.849,245.186,264.297z"/>
			<path d="M160.73,40.305c-4.284,3.672-7.344,7.956-9.792,13.464c-4.284-3.672-8.568-6.731-14.688-7.344
				c-7.956-1.224-14.076,6.12-10.404,13.464c4.284,8.568,12.24,15.3,21.42,18.36c4.896,4.284,12.852,3.06,15.3-4.284l0,0
				c6.731-6.732,11.016-15.3,13.464-24.48C177.865,39.692,167.462,34.185,160.73,40.305z"/>
		</g>
	</g>
</g>
<g>
</g>
<g>
</g>
<g>
</g>
<g>
</g>
<g>
</g>
<g>
</g>
<g>
</g>
<g>
</g>
<g>
</g>
<g>
</g>
<g>
</g>
<g>
</g>
<g>
</g>
<g>
</g>
<g>
</g>
</svg>
